<?xml version="1.0" encoding="UTF-8" standalone="no"?>
<!-- Created with Inkscape (http://www.inkscape.org/) -->

<svg
   xmlns:dc="http://purl.org/dc/elements/1.1/"
   xmlns:cc="http://creativecommons.org/ns#"
   xmlns:rdf="http://www.w3.org/1999/02/22-rdf-syntax-ns#"
   xmlns:svg="http://www.w3.org/2000/svg"
   xmlns="http://www.w3.org/2000/svg"
   xmlns:xlink="http://www.w3.org/1999/xlink"
   xmlns:sodipodi="http://sodipodi.sourceforge.net/DTD/sodipodi-0.dtd"
   xmlns:inkscape="http://www.inkscape.org/namespaces/inkscape"
   width="4000"
   height="2500"
   id="svg2"
   version="1.1"
   inkscape:version="0.48.5 r10040"
   sodipodi:docname="makepkg not war - neon.svg"
   enable-background="new"
   inkscape:export-filename="/run/media/scosh/Media WD/New Drive/2D Graphics/Inkscape/makepkg_not_war_neon.png"
   inkscape:export-xdpi="90"
   inkscape:export-ydpi="90">
  <defs
     id="defs4">
    <linearGradient
       gradientTransform="matrix(0.749107,0,0,0.749107,-35.459862,91.44108)"
       gradientUnits="userSpaceOnUse"
       xlink:href="#linearGradient3388"
       id="linearGradient4416"
       y2="183.9644"
       x2="490.72305"
       y1="237.72447"
       x1="490.72305" />
    <linearGradient
       id="linearGradient3388">
      <stop
         offset="0"
         style="stop-color:#000000;stop-opacity:0"
         id="stop3390" />
      <stop
         offset="1"
         style="stop-color:#000000;stop-opacity:0.37113401"
         id="stop3392" />
    </linearGradient>
    <linearGradient
       gradientTransform="matrix(-0.3937741,0,0,0.393752,357.51969,122.00151)"
       gradientUnits="userSpaceOnUse"
       xlink:href="#path1082_2_"
       id="linearGradient2544"
       y2="303.14029"
       x2="606.91248"
       y1="104.50665"
       x1="541.33502" />
    <linearGradient
       gradientTransform="translate(287,-83)"
       gradientUnits="userSpaceOnUse"
       id="path1082_2_"
       y2="129.3468"
       x2="112.49853"
       y1="6.1372099"
       x1="112.49854">
      <stop
         offset="0"
         style="stop-color:#ffffff;stop-opacity:0"
         id="stop193" />
      <stop
         offset="1"
         style="stop-color:#ffffff;stop-opacity:0.27450982"
         id="stop195" />
      <midPointStop
         id="midPointStop197"
         style="stop-color:#FFFFFF"
         offset="0" />
      <midPointStop
         id="midPointStop199"
         style="stop-color:#FFFFFF"
         offset="0.5" />
      <midPointStop
         id="midPointStop201"
         style="stop-color:#000000"
         offset="1" />
    </linearGradient>
    <linearGradient
       inkscape:collect="always"
       xlink:href="#linearGradient4521-9"
       id="linearGradient5000-1"
       x1="421.96576"
       y1="207.18405"
       x2="751.51025"
       y2="501.5148"
       gradientUnits="userSpaceOnUse"
       gradientTransform="translate(-20511.429,51.428571)" />
    <linearGradient
       id="linearGradient4521-9">
      <stop
         style="stop-color:#ffdc00;stop-opacity:1;"
         offset="0"
         id="stop4523-6" />
      <stop
         style="stop-color:#ff9600;stop-opacity:1;"
         offset="1"
         id="stop4525-3" />
    </linearGradient>
    <path
       sodipodi:type="arc"
       style="fill:none;stroke:none"
       id="path4289-82"
       sodipodi:cx="2113.2178"
       sodipodi:cy="1232.0693"
       sodipodi:rx="513.77118"
       sodipodi:ry="513.77118"
       d="m 2626.989,1232.0693 a 513.77118,513.77118 0 1 1 -1027.5424,0 513.77118,513.77118 0 1 1 1027.5424,0 z"
       transform="matrix(-0.70197014,-0.68884752,0.68884752,-0.70197014,2634.7078,3570.5608)" />
    <path
       sodipodi:type="arc"
       style="fill:none;stroke:none;display:inline"
       id="path4289-8-5"
       sodipodi:cx="2113.2178"
       sodipodi:cy="1232.0693"
       sodipodi:rx="513.77118"
       sodipodi:ry="513.77118"
       d="m 2626.989,1232.0693 a 513.77118,513.77118 0 1 1 -1027.5424,0 513.77118,513.77118 0 1 1 1027.5424,0 z"
       transform="matrix(-0.72494228,1.0057426,1.0057426,0.72494228,2292.8163,-1768.5324)" />
    <filter
       inkscape:collect="always"
       id="filter4634">
      <feBlend
         inkscape:collect="always"
         mode="lighten"
         in2="BackgroundImage"
         id="feBlend4636" />
    </filter>
    <filter
       inkscape:collect="always"
       id="filter5510">
      <feGaussianBlur
         inkscape:collect="always"
         stdDeviation="11.247597"
         id="feGaussianBlur5512" />
    </filter>
    <filter
       inkscape:collect="always"
       id="filter5514">
      <feGaussianBlur
         inkscape:collect="always"
         stdDeviation="11.25"
         id="feGaussianBlur5516" />
    </filter>
    <filter
       inkscape:collect="always"
       id="filter5518">
      <feGaussianBlur
         inkscape:collect="always"
         stdDeviation="11.247605"
         id="feGaussianBlur5520" />
    </filter>
    <path
       sodipodi:type="arc"
       style="fill:none;stroke:none"
       id="path4289-2"
       sodipodi:cx="2113.2178"
       sodipodi:cy="1232.0693"
       sodipodi:rx="513.77118"
       sodipodi:ry="513.77118"
       d="m 2626.989,1232.0693 a 513.77118,513.77118 0 1 1 -1027.5424,0 513.77118,513.77118 0 1 1 1027.5424,0 z"
       transform="matrix(-0.70197014,-0.68884752,0.68884752,-0.70197014,2634.7078,3570.5608)" />
    <path
       sodipodi:type="arc"
       style="fill:none;stroke:none"
       id="path4289-82-7"
       sodipodi:cx="2113.2178"
       sodipodi:cy="1232.0693"
       sodipodi:rx="513.77118"
       sodipodi:ry="513.77118"
       d="m 2626.989,1232.0693 a 513.77118,513.77118 0 1 1 -1027.5424,0 513.77118,513.77118 0 1 1 1027.5424,0 z"
       transform="matrix(-0.70197014,-0.68884752,0.68884752,-0.70197014,2634.7078,3570.5608)" />
    <path
       sodipodi:type="arc"
       style="fill:none;stroke:none;display:inline"
       id="path4289-8-57"
       sodipodi:cx="2113.2178"
       sodipodi:cy="1232.0693"
       sodipodi:rx="513.77118"
       sodipodi:ry="513.77118"
       d="m 2626.989,1232.0693 a 513.77118,513.77118 0 1 1 -1027.5424,0 513.77118,513.77118 0 1 1 1027.5424,0 z"
       transform="matrix(-0.72494228,1.0057426,1.0057426,0.72494228,2292.8163,-1768.5324)" />
    <path
       sodipodi:type="arc"
       style="fill:none;stroke:none;display:inline"
       id="path4289-8-5-2"
       sodipodi:cx="2113.2178"
       sodipodi:cy="1232.0693"
       sodipodi:rx="513.77118"
       sodipodi:ry="513.77118"
       d="m 2626.989,1232.0693 a 513.77118,513.77118 0 1 1 -1027.5424,0 513.77118,513.77118 0 1 1 1027.5424,0 z"
       transform="matrix(-0.72494228,1.0057426,1.0057426,0.72494228,2292.8163,-1768.5324)" />
  </defs>
  <sodipodi:namedview
     id="base"
     pagecolor="#ffffff"
     bordercolor="#666666"
     borderopacity="1.0"
     inkscape:pageopacity="0.0"
     inkscape:pageshadow="2"
     inkscape:zoom="0.18959999"
     inkscape:cx="1797.2746"
     inkscape:cy="1449.5927"
     inkscape:document-units="px"
     inkscape:current-layer="layer2"
     showgrid="false"
     inkscape:snap-page="true"
     showguides="true"
     inkscape:guide-bbox="true"
     inkscape:window-width="1914"
     inkscape:window-height="1160"
     inkscape:window-x="0"
     inkscape:window-y="18"
     inkscape:window-maximized="0">
    <inkscape:grid
       type="xygrid"
       id="grid4743"
       empspacing="5"
       visible="true"
       enabled="true"
       snapvisiblegridlinesonly="true" />
  </sodipodi:namedview>
  <metadata
     id="metadata7">
    <rdf:RDF>
      <cc:Work
         rdf:about="">
        <dc:format>image/svg+xml</dc:format>
        <dc:type
           rdf:resource="http://purl.org/dc/dcmitype/StillImage" />
        <dc:title />
      </cc:Work>
    </rdf:RDF>
  </metadata>
  <g
     inkscape:groupmode="layer"
     id="layer2"
     inkscape:label="bg"
     style="display:inline;filter:url(#filter4634)"
     sodipodi:insensitive="true">
    <rect
       style="fill:#333333;fill-opacity:1"
       id="rect3847"
       width="4000"
       height="2500"
       x="0"
       y="-2500"
       transform="scale(1,-1)" />
  </g>
  <g
     inkscape:groupmode="layer"
     id="layer3"
     inkscape:label="grafix"
     style="display:inline">
    <path
       sodipodi:type="arc"
       style="fill:none;stroke:#1481b8;stroke-width:60;stroke-miterlimit:4;stroke-opacity:1;stroke-dasharray:none;display:inline"
       id="path4891-7"
       sodipodi:cx="1789.1387"
       sodipodi:cy="934.7605"
       sodipodi:rx="439.5817"
       sodipodi:ry="439.5817"
       d="m 2228.7204,934.7605 a 439.5817,439.5817 0 1 1 -879.1634,0 439.5817,439.5817 0 1 1 879.1634,0 z"
       transform="translate(-669.13868,315.2395)" />
    <path
       sodipodi:type="arc"
       style="fill:none;stroke:#1481b8;stroke-width:60;stroke-miterlimit:4;stroke-opacity:1;stroke-dasharray:none;display:inline"
       id="path4891-6"
       sodipodi:cx="1789.1387"
       sodipodi:cy="934.7605"
       sodipodi:rx="439.5817"
       sodipodi:ry="439.5817"
       d="m 2228.7204,934.7605 a 439.5817,439.5817 0 1 1 -879.1634,0 439.5817,439.5817 0 1 1 879.1634,0 z"
       transform="translate(1090.8613,315.2395)" />
    <path
       sodipodi:type="arc"
       style="fill:none;stroke:#1481b8;stroke-width:60;stroke-miterlimit:4;stroke-opacity:1;stroke-dasharray:none"
       id="path4891"
       sodipodi:cx="1789.1387"
       sodipodi:cy="934.7605"
       sodipodi:rx="439.5817"
       sodipodi:ry="439.5817"
       d="m 2228.7204,934.7605 a 439.5817,439.5817 0 1 1 -879.1634,0 439.5817,439.5817 0 1 1 879.1634,0 z"
       transform="translate(210.86133,315.2395)" />
    <path
       style="fill:#ff5555;fill-opacity:1;stroke:none"
       d="m 2880,875.08013 c -207.0627,0 -374.9199,167.85717 -374.9199,374.91987 0,207.0627 167.8572,374.9199 374.9199,374.9199 207.0627,0 374.9199,-167.8572 374.9199,-374.9199 0,-207.0627 -167.8572,-374.91987 -374.9199,-374.91987 z m -94.8968,206.03327 c 15.5232,0 29.8837,3.7463 44.2446,11.9312 2.1707,1.2098 9.1134,5.4021 10.9369,7.0151 2.1718,2.0157 17.2919,13.8603 20.2444,17.7309 1.4756,1.8549 15.8805,19.2777 15.8805,19.2778 0,0 13.7243,-14.5961 16.1568,-17.0959 4.1676,-4.1127 8.0638,-6.7735 11.1025,-9.0312 8.8574,-6.6931 17.9009,-12.6431 28.0603,-18.4491 7.1199,-4.1125 19.3653,-7.9233 25.8785,-8.8102 1.8231,-0.2419 6.6675,-0.8927 8.8379,-1.2153 24.7478,-3.548 56.8086,6.4744 74.9564,16.9577 20.0591,11.5315 33.8402,28.5344 44.5208,49.8237 2.3445,4.7575 7.741,17.4309 8.7827,20.5756 5.6448,16.854 6.9521,38.1394 5.3027,59.1863 -2.518,32.7397 -16.6,66.3729 -31.6231,86.6942 -3.0389,4.0322 -9.9701,15.8008 -18.3938,25.9613 -28.0469,33.5464 -69.563,75.2963 -111.3298,101.7463 -11.7226,7.4187 -56.6177,32.0373 -56.6177,32.0373 0,0 -46.8019,-26.1429 -54.2703,-30.7393 -47.3234,-29.353 -99.5811,-70.9451 -128.7569,-117.9582 -10.1598,-16.37 -21.8995,-32.9182 -28.5851,-52.9169 -3.1257,-9.1931 -5.8941,-17.1009 -8.0645,-27.3423 -5.1226,-24.1112 -3.5739,-52.4853 3.2866,-74.9839 3.039,-9.9994 7.5623,-20.7275 11.9035,-29.2755 15.7178,-30.5627 44.8889,-50.646 83.2694,-58.4682 6.0793,-1.2096 11.893,-2.0801 17.5378,-2.4028 2.2685,-0.1512 4.5213,-0.2481 6.7389,-0.2486 z"
       id="path4722"
       inkscape:connector-curvature="0" />
    <path
       style="fill:#1793d1;fill-opacity:1;stroke:none;display:inline"
       d="m 2000,875.00001 c -207.1048,0 -375,167.89519 -375,374.99999 0,207.1048 167.8952,375 375,375 207.1048,0 375,-167.8952 375,-375 -1e-4,-207.1048 -167.8952,-374.99999 -375,-374.99999 z m -0.028,130.99449 c 40.4869,95.0139 50.0611,124.2837 168.149,344.1435 -14.9333,-8.9663 -34.0984,-16.9977 -60.8563,-23.9501 38.9291,19.9808 58.0287,38.4428 76.3259,52.6241 11.616,21.5399 23.7756,44.1648 37.4035,69.2543 -69.1125,-39.8999 -122.8362,-64.792 -172.9008,-74.5856 1.6647,-7.5359 2.6074,-15.6423 2.8178,-24.0884 1.1118,-44.8858 -20.3786,-83.2087 -48.0386,-85.5526 -27.6595,-2.3436 -51.0157,32.1862 -52.1272,77.0719 l -0.083,2.2377 c -0.084,10.5498 1.1418,20.6523 3.3149,29.9999 -50.6137,9.5146 -104.9121,34.47 -174.9724,74.9171 89.1392,-160.1646 133.0683,-243.5138 161.1052,-302.0166 14.6734,12.3404 34.3088,24.2325 63.0937,36.0775 -26.7744,-18.726 -43.2534,-35.293 -56.6851,-49.5304 21.9033,-46.7991 33.7827,-78.3752 53.4533,-126.6023 z"
       id="path4108-5"
       inkscape:connector-curvature="0" />
    <rect
       style="fill:#1793d1;fill-opacity:1;stroke:#ffffff;stroke-width:3;stroke-miterlimit:4;stroke-opacity:1;stroke-dasharray:none"
       id="rect3955"
       width="113.13708"
       height="113.13708"
       x="-499.93756"
       y="-6.9922409"
       transform="scale(1,-1)" />
    <rect
       style="fill:#1481b8;fill-opacity:1;stroke:#ffffff;stroke-width:3;stroke-miterlimit:4;stroke-opacity:1;stroke-dasharray:none;display:inline"
       id="rect3955-3"
       width="113.13708"
       height="113.13708"
       x="-359.93756"
       y="-106.14482" />
    <rect
       style="fill:#4d4d4d;fill-opacity:1;stroke:#ffffff;stroke-width:3;stroke-miterlimit:4;stroke-opacity:1;stroke-dasharray:none;display:inline"
       id="rect3955-3-0"
       width="113.13708"
       height="113.13708"
       x="-499.93756"
       y="33.855186" />
    <rect
       style="fill:#333333;fill-opacity:1;stroke:#ffffff;stroke-width:3;stroke-miterlimit:4;stroke-opacity:1;stroke-dasharray:none;display:inline"
       id="rect3955-3-0-4"
       width="113.13708"
       height="113.13708"
       x="-359.93756"
       y="33.855186" />
    <path
       sodipodi:type="arc"
       style="fill:none;stroke:none"
       id="path4289"
       sodipodi:cx="2113.2178"
       sodipodi:cy="1232.0693"
       sodipodi:rx="513.77118"
       sodipodi:ry="513.77118"
       d="m 2626.989,1232.0693 a 513.77118,513.77118 0 1 1 -1027.5424,0 513.77118,513.77118 0 1 1 1027.5424,0 z"
       transform="matrix(-0.70197014,-0.68884752,0.68884752,-0.70197014,2634.7078,3570.5608)" />
    <path
       sodipodi:type="arc"
       style="fill:none;stroke:none;display:inline"
       id="path4289-8"
       sodipodi:cx="2113.2178"
       sodipodi:cy="1232.0693"
       sodipodi:rx="513.77118"
       sodipodi:ry="513.77118"
       d="m 2626.989,1232.0693 a 513.77118,513.77118 0 1 1 -1027.5424,0 513.77118,513.77118 0 1 1 1027.5424,0 z"
       transform="matrix(-0.72494228,1.0057426,1.0057426,0.72494228,2292.8163,-1768.5324)" />
    <path
       style="font-size:medium;font-style:normal;font-variant:normal;font-weight:normal;font-stretch:normal;text-indent:0;text-align:start;text-decoration:none;line-height:normal;letter-spacing:normal;word-spacing:normal;text-transform:none;direction:ltr;block-progression:tb;writing-mode:lr-tb;text-anchor:start;baseline-shift:baseline;color:#000000;fill:#ffffff;fill-opacity:1;stroke:none;stroke-width:60;marker:none;visibility:visible;display:inline;overflow:visible;enable-background:accumulate;font-family:Sans;-inkscape-font-specification:Sans"
       d="m 1120,875.07988 c -206.76245,0 -374.92012,168.15762 -374.92012,374.92012 0,206.7625 168.15767,374.9202 374.92012,374.9202 206.7625,0 374.9202,-168.1577 374.9202,-374.9202 0,-206.7625 -168.1577,-374.92012 -374.9202,-374.92012 z m -29.5542,52.01079 0,312.72343 -218.8356,218.8357 C 824.25218,1402.2978 795.74468,1329.5502 795.74468,1250 c 0,-169.4171 129.22561,-308.03062 294.70112,-322.90933 z m 59.1089,0 c 165.475,14.87871 294.7009,153.49223 294.7009,322.90933 0,79.6923 -28.5936,152.5726 -76.1031,208.9662 l -218.5978,-218.598 0,-313.27753 z m -59.1089,392.30963 0,253.509 c -67.9412,-6.1086 -129.75877,-33.0676 -179.04274,-74.4666 l 179.04274,-179.0424 z m 59.1089,0.5276 178.7517,178.7784 c -49.2348,41.2566 -110.949,68.1065 -178.7517,74.203 l 0,-252.9814 z"
       id="path3849-9-5"
       inkscape:connector-curvature="0" />
    <path
       style="fill:#116f9e;fill-opacity:1;stroke:none"
       d="m -443.20602,243.62787 c -12.0388,0.012 -60.1874,3.8789 -60.0467,64.61 -0.072,19.6664 0.1657,23.7141 3.6889,38.0664 30.5947,56.9545 84.5491,48.1632 126.1397,121.5764 41.5906,-73.4132 95.5449,-64.6219 126.1397,-121.5764 3.5232,-14.3523 3.7607,-18.4 3.6889,-38.0664 0.1607,-69.407 -62.7467,-64.534 -62.7467,-64.534 -54.1698,0 -67.0819,48.4861 -67.0819,48.4861 0,0 -12.9121,-48.4861 -67.0819,-48.4861 0,0 -0.9802,-0.078 -2.7,-0.075 z"
       id="path4776"
       inkscape:connector-curvature="0" />
    <rect
       style="fill:#1aa5eb;fill-opacity:1;stroke:#ffffff;stroke-width:3;stroke-miterlimit:4;stroke-opacity:1;stroke-dasharray:none;display:inline"
       id="rect3955-9"
       width="113.13708"
       height="113.13708"
       x="-639.93756"
       y="-6.9922771"
       transform="scale(1,-1)" />
    <path
       style="fill:#ff5555;fill-opacity:1;stroke:none;display:inline;filter:url(#filter5510)"
       d="m 2880,875.0801 c -207.0627,0 -374.9199,167.8572 -374.9199,374.9199 0,207.0627 167.8572,374.9199 374.9199,374.9199 207.0627,0 374.9199,-167.8572 374.9199,-374.9199 0,-207.0627 -167.8572,-374.9199 -374.9199,-374.9199 z m -94.8968,206.0333 c 15.5232,0 29.8837,3.7463 44.2446,11.9312 2.1707,1.2098 9.1134,5.4021 10.9369,7.0151 2.1718,2.0157 17.2919,13.8603 20.2444,17.7309 1.4756,1.8549 15.8805,19.2777 15.8805,19.2778 0,0 13.7243,-14.5961 16.1568,-17.0959 4.1676,-4.1127 8.0638,-6.7735 11.1025,-9.0312 8.8574,-6.6931 17.9009,-12.6431 28.0603,-18.4491 7.1199,-4.1125 19.3653,-7.9233 25.8785,-8.8102 1.8231,-0.2419 6.6675,-0.8927 8.8379,-1.2153 24.7478,-3.548 56.8086,6.4744 74.9564,16.9577 20.0591,11.5315 33.8402,28.5344 44.5208,49.8237 2.3445,4.7575 7.741,17.4309 8.7827,20.5756 5.6448,16.854 6.9521,38.1394 5.3027,59.1863 -2.518,32.7397 -16.6,66.3729 -31.6231,86.6942 -3.0389,4.0322 -9.9701,15.8008 -18.3938,25.9613 -28.0469,33.5464 -69.563,75.2963 -111.3298,101.7463 -11.7226,7.4187 -56.6177,32.0373 -56.6177,32.0373 0,0 -46.8019,-26.1429 -54.2703,-30.7393 -47.3234,-29.353 -99.5811,-70.9451 -128.7569,-117.9582 -10.1598,-16.37 -21.8995,-32.9182 -28.5851,-52.9169 -3.1257,-9.1931 -5.8941,-17.1009 -8.0645,-27.3423 -5.1226,-24.1112 -3.5739,-52.4853 3.2866,-74.9839 3.039,-9.9994 7.5623,-20.7275 11.9035,-29.2755 15.7178,-30.5627 44.8889,-50.646 83.2694,-58.4682 6.0793,-1.2096 11.893,-2.0801 17.5378,-2.4028 2.2685,-0.1512 4.5213,-0.2481 6.7389,-0.2486 z"
       id="path4722-4"
       inkscape:connector-curvature="0" />
    <path
       style="fill:#1793d1;fill-opacity:1;stroke:none;display:inline;filter:url(#filter5514)"
       d="m 2000,875 c -207.1048,0 -375,167.8952 -375,375 0,207.1048 167.8952,375 375,375 207.1048,0 375,-167.8952 375,-375 -1e-4,-207.1048 -167.8952,-375 -375,-375 z m -0.028,130.9945 c 40.4869,95.0139 50.0611,124.2837 168.149,344.1435 -14.9333,-8.9663 -34.0984,-16.9977 -60.8563,-23.9501 38.9291,19.9808 58.0287,38.4428 76.3259,52.6241 11.616,21.5399 23.7756,44.1648 37.4035,69.2543 -69.1125,-39.8999 -122.8362,-64.792 -172.9008,-74.5856 1.6647,-7.5359 2.6074,-15.6423 2.8178,-24.0884 1.1118,-44.8858 -20.3786,-83.2087 -48.0386,-85.5526 -27.6595,-2.3436 -51.0157,32.1862 -52.1272,77.0719 l -0.083,2.2377 c -0.084,10.5498 1.1418,20.6523 3.3149,29.9999 -50.6137,9.5146 -104.9121,34.47 -174.9724,74.9171 89.1392,-160.1646 133.0683,-243.5138 161.1052,-302.0166 14.6734,12.3404 34.3088,24.2325 63.0937,36.0775 -26.7744,-18.726 -43.2534,-35.293 -56.6851,-49.5304 21.9033,-46.7991 33.7827,-78.3752 53.4533,-126.6023 z"
       id="path4108-5-5"
       inkscape:connector-curvature="0" />
    <path
       style="font-size:medium;font-style:normal;font-variant:normal;font-weight:normal;font-stretch:normal;text-indent:0;text-align:start;text-decoration:none;line-height:normal;letter-spacing:normal;word-spacing:normal;text-transform:none;direction:ltr;block-progression:tb;writing-mode:lr-tb;text-anchor:start;baseline-shift:baseline;color:#000000;fill:#ffffff;fill-opacity:1;stroke:none;stroke-width:60;marker:none;visibility:visible;display:inline;overflow:visible;enable-background:accumulate;font-family:Sans;-inkscape-font-specification:Sans;filter:url(#filter5518)"
       d="m 1120,875.0799 c -206.76245,0 -374.92012,168.1576 -374.92012,374.9201 0,206.7625 168.15767,374.9202 374.92012,374.9202 206.7625,0 374.9202,-168.1577 374.9202,-374.9202 0,-206.7625 -168.1577,-374.9201 -374.9202,-374.9201 z m -29.5542,52.01079 0,312.72341 -218.8356,218.8357 C 824.25218,1402.2978 795.74468,1329.5502 795.74468,1250 c 0,-169.4171 129.22561,-308.0306 294.70112,-322.90931 z m 59.1089,0 c 165.475,14.87871 294.7009,153.49221 294.7009,322.90931 0,79.6923 -28.5936,152.5726 -76.1031,208.9662 l -218.5978,-218.598 0,-313.27751 z m -59.1089,392.30961 0,253.509 c -67.9412,-6.1086 -129.75877,-33.0676 -179.04274,-74.4666 l 179.04274,-179.0424 z m 59.1089,0.5276 178.7517,178.7784 c -49.2348,41.2566 -110.949,68.1065 -178.7517,74.203 l 0,-252.9814 z"
       id="path3849-9-5-2"
       inkscape:connector-curvature="0" />
    <path
       sodipodi:type="arc"
       style="fill:none;stroke:#1481b8;stroke-width:60;stroke-miterlimit:4;stroke-opacity:1;stroke-dasharray:none;display:inline"
       id="path4891-9"
       sodipodi:cx="1789.1387"
       sodipodi:cy="934.7605"
       sodipodi:rx="439.5817"
       sodipodi:ry="439.5817"
       d="m 2228.7204,934.7605 a 439.5817,439.5817 0 1 1 -879.1634,0 439.5817,439.5817 0 1 1 879.1634,0 z"
       transform="translate(210.86135,315.2395)" />
  </g>
  <g
     inkscape:groupmode="layer"
     id="layer4"
     inkscape:label="text"
     style="display:inline">
    <text
       xml:space="preserve"
       style="font-size:180.30000305px;font-style:normal;font-variant:normal;font-weight:normal;font-stretch:normal;text-align:start;line-height:125%;letter-spacing:0px;word-spacing:0px;writing-mode:lr-tb;text-anchor:start;opacity:0.5;fill:#116b99;fill-opacity:1;stroke:none;display:inline;font-family:Source Sans Pro;-inkscape-font-specification:Source Sans Pro"
       id="text4388-6"
       sodipodi:linespacing="125%"
       transform="matrix(0.87920117,0,0,0.87920117,242.68887,246.35241)"><textPath
         xlink:href="#path4289-8-5-2"
         id="textPath4413-0"><tspan
   style="font-size:180.30000305px;font-style:normal;font-variant:normal;font-weight:normal;font-stretch:normal;fill:#116b99;fill-opacity:1;font-family:ABeeZee;-inkscape-font-specification:ABeeZee"
   id="tspan4390-7">NOT WAR</tspan></textPath></text>
    <text
       transform="translate(-3.209858e-5,-30.00006)"
       xml:space="preserve"
       style="font-size:180.33306885px;font-style:normal;font-weight:normal;line-height:125%;letter-spacing:0px;word-spacing:0px;opacity:0.5;fill:#116f9e;fill-opacity:1;stroke:none;display:inline;font-family:Sans"
       id="text4381-0"
       sodipodi:linespacing="125%"><textPath
         xlink:href="#path4289-82-7"
         id="textPath4385-9"><tspan
   style="font-style:normal;font-variant:normal;font-weight:normal;font-stretch:normal;fill:#116f9e;fill-opacity:1;font-family:ABeeZee;-inkscape-font-specification:ABeeZee"
   id="tspan4383-3">MAKEPKG</tspan></textPath></text>
    <text
       xml:space="preserve"
       style="font-size:180.33306885px;font-style:normal;font-weight:normal;line-height:125%;letter-spacing:0px;word-spacing:0px;fill:#1793d1;fill-opacity:1;stroke:none;display:inline;font-family:Sans"
       id="text4381"
       sodipodi:linespacing="125%"
       transform="translate(-3.209858e-5,-42.00003)"><textPath
         xlink:href="#path4289-2"
         id="textPath4385"><tspan
   style="font-style:normal;font-variant:normal;font-weight:normal;font-stretch:normal;fill:#1793d1;fill-opacity:1;font-family:ABeeZee;-inkscape-font-specification:ABeeZee"
   id="tspan4383">MAKEPKG</tspan></textPath></text>
    <text
       xml:space="preserve"
       style="font-size:180.30000305px;font-style:normal;font-variant:normal;font-weight:normal;font-stretch:normal;text-align:start;line-height:125%;letter-spacing:0px;word-spacing:0px;writing-mode:lr-tb;text-anchor:start;fill:#1793d1;fill-opacity:1;stroke:none;display:inline;font-family:Source Sans Pro;-inkscape-font-specification:Source Sans Pro"
       id="text4388"
       sodipodi:linespacing="125%"
       transform="matrix(0.87920117,0,0,0.87920117,242.68887,256.35241)"><textPath
         xlink:href="#path4289-8-57"
         id="textPath4413"><tspan
   style="font-size:180.30000305px;font-style:normal;font-variant:normal;font-weight:normal;font-stretch:normal;fill:#1793d1;fill-opacity:1;font-family:ABeeZee;-inkscape-font-specification:ABeeZee"
   id="tspan4390">NOT WAR</tspan></textPath></text>
  </g>
</svg>
