<?xml version="1.0" encoding="UTF-8" standalone="no"?>
<!-- Created with Inkscape (http://www.inkscape.org/) -->

<svg
   xmlns:dc="http://purl.org/dc/elements/1.1/"
   xmlns:cc="http://creativecommons.org/ns#"
   xmlns:rdf="http://www.w3.org/1999/02/22-rdf-syntax-ns#"
   xmlns:svg="http://www.w3.org/2000/svg"
   xmlns="http://www.w3.org/2000/svg"
   xmlns:xlink="http://www.w3.org/1999/xlink"
   xmlns:sodipodi="http://sodipodi.sourceforge.net/DTD/sodipodi-0.dtd"
   xmlns:inkscape="http://www.inkscape.org/namespaces/inkscape"
   width="4000"
   height="2500"
   id="svg2"
   version="1.1"
   inkscape:version="0.48.5 r10040"
   sodipodi:docname="makepkg not war - flower power.svg"
   inkscape:export-filename="/run/media/scosh/Media WD/New Drive/2D Graphics/Inkscape/makepkg not war - wallpaper series/makepkg_not_war_no-text.png"
   inkscape:export-xdpi="90"
   inkscape:export-ydpi="90"
   enable-background="new">
  <defs
     id="defs4">
    <linearGradient
       gradientTransform="matrix(0.749107,0,0,0.749107,-35.459862,91.44108)"
       gradientUnits="userSpaceOnUse"
       xlink:href="#linearGradient3388"
       id="linearGradient4416"
       y2="183.9644"
       x2="490.72305"
       y1="237.72447"
       x1="490.72305" />
    <linearGradient
       id="linearGradient3388">
      <stop
         offset="0"
         style="stop-color:#000000;stop-opacity:0"
         id="stop3390" />
      <stop
         offset="1"
         style="stop-color:#000000;stop-opacity:0.37113401"
         id="stop3392" />
    </linearGradient>
    <linearGradient
       gradientTransform="matrix(-0.3937741,0,0,0.393752,357.51969,122.00151)"
       gradientUnits="userSpaceOnUse"
       xlink:href="#path1082_2_"
       id="linearGradient2544"
       y2="303.14029"
       x2="606.91248"
       y1="104.50665"
       x1="541.33502" />
    <linearGradient
       gradientTransform="translate(287,-83)"
       gradientUnits="userSpaceOnUse"
       id="path1082_2_"
       y2="129.3468"
       x2="112.49853"
       y1="6.1372099"
       x1="112.49854">
      <stop
         offset="0"
         style="stop-color:#ffffff;stop-opacity:0"
         id="stop193" />
      <stop
         offset="1"
         style="stop-color:#ffffff;stop-opacity:0.27450982"
         id="stop195" />
      <midPointStop
         id="midPointStop197"
         style="stop-color:#FFFFFF"
         offset="0" />
      <midPointStop
         id="midPointStop199"
         style="stop-color:#FFFFFF"
         offset="0.5" />
      <midPointStop
         id="midPointStop201"
         style="stop-color:#000000"
         offset="1" />
    </linearGradient>
    <linearGradient
       inkscape:collect="always"
       xlink:href="#linearGradient4521-9"
       id="linearGradient5000-1"
       x1="421.96576"
       y1="207.18405"
       x2="751.51025"
       y2="501.5148"
       gradientUnits="userSpaceOnUse"
       gradientTransform="translate(-20511.429,51.428571)" />
    <linearGradient
       id="linearGradient4521-9">
      <stop
         style="stop-color:#ffdc00;stop-opacity:1;"
         offset="0"
         id="stop4523-6" />
      <stop
         style="stop-color:#ff9600;stop-opacity:1;"
         offset="1"
         id="stop4525-3" />
    </linearGradient>
    <path
       sodipodi:type="arc"
       style="fill:none;stroke:none"
       id="path4289-82"
       sodipodi:cx="2113.2178"
       sodipodi:cy="1232.0693"
       sodipodi:rx="513.77118"
       sodipodi:ry="513.77118"
       d="m 2626.989,1232.0693 a 513.77118,513.77118 0 1 1 -1027.5424,0 513.77118,513.77118 0 1 1 1027.5424,0 z"
       transform="matrix(-0.70197014,-0.68884752,0.68884752,-0.70197014,2634.7078,3570.5608)" />
    <path
       sodipodi:type="arc"
       style="fill:none;stroke:none;display:inline"
       id="path4289-8-5"
       sodipodi:cx="2113.2178"
       sodipodi:cy="1232.0693"
       sodipodi:rx="513.77118"
       sodipodi:ry="513.77118"
       d="m 2626.989,1232.0693 a 513.77118,513.77118 0 1 1 -1027.5424,0 513.77118,513.77118 0 1 1 1027.5424,0 z"
       transform="matrix(-0.72494228,1.0057426,1.0057426,0.72494228,2292.8163,-1768.5324)" />
    <filter
       inkscape:collect="always"
       id="filter4634">
      <feBlend
         inkscape:collect="always"
         mode="lighten"
         in2="BackgroundImage"
         id="feBlend4636" />
    </filter>
    <path
       sodipodi:type="arc"
       style="fill:none;stroke:none;display:inline"
       id="path4289-8-1"
       sodipodi:cx="2113.2178"
       sodipodi:cy="1232.0693"
       sodipodi:rx="513.77118"
       sodipodi:ry="513.77118"
       d="m 2626.989,1232.0693 a 513.77118,513.77118 0 1 1 -1027.5424,0 513.77118,513.77118 0 1 1 1027.5424,0 z"
       transform="matrix(-0.72494228,1.0057426,1.0057426,0.72494228,2292.8163,-1768.5324)" />
    <path
       sodipodi:type="arc"
       style="fill:none;stroke:none;display:inline"
       id="path4289-8-5-0"
       sodipodi:cx="2113.2178"
       sodipodi:cy="1232.0693"
       sodipodi:rx="513.77118"
       sodipodi:ry="513.77118"
       d="m 2626.989,1232.0693 a 513.77118,513.77118 0 1 1 -1027.5424,0 513.77118,513.77118 0 1 1 1027.5424,0 z"
       transform="matrix(-0.72494228,1.0057426,1.0057426,0.72494228,2292.8163,-1768.5324)" />
    <path
       sodipodi:type="arc"
       style="fill:none;stroke:none"
       id="path4289-1"
       sodipodi:cx="2113.2178"
       sodipodi:cy="1232.0693"
       sodipodi:rx="513.77118"
       sodipodi:ry="513.77118"
       d="m 2626.989,1232.0693 a 513.77118,513.77118 0 1 1 -1027.5424,0 513.77118,513.77118 0 1 1 1027.5424,0 z"
       transform="matrix(-0.70197014,-0.68884752,0.68884752,-0.70197014,2634.7078,3570.5608)" />
    <path
       sodipodi:type="arc"
       style="fill:none;stroke:none"
       id="path4289-82-3"
       sodipodi:cx="2113.2178"
       sodipodi:cy="1232.0693"
       sodipodi:rx="513.77118"
       sodipodi:ry="513.77118"
       d="m 2626.989,1232.0693 a 513.77118,513.77118 0 1 1 -1027.5424,0 513.77118,513.77118 0 1 1 1027.5424,0 z"
       transform="matrix(-0.70197014,-0.68884752,0.68884752,-0.70197014,2634.7078,3570.5608)" />
    <path
       sodipodi:type="arc"
       style="fill:none;stroke:none"
       id="path3893-6"
       sodipodi:cx="2207.5874"
       sodipodi:cy="1474.6952"
       sodipodi:rx="694.37885"
       sodipodi:ry="694.37885"
       d="m 2901.9662,1474.6952 a 694.37885,694.37885 0 1 1 -1388.7576,0 694.37885,694.37885 0 1 1 1388.7576,0 z"
       transform="matrix(-0.54351988,-0.72687949,0.72687949,-0.54351988,2127.942,3656.1762)" />
    <path
       sodipodi:type="arc"
       style="fill:none;stroke:none"
       id="path3893-7"
       sodipodi:cx="2207.5874"
       sodipodi:cy="1474.6952"
       sodipodi:rx="694.37885"
       sodipodi:ry="694.37885"
       d="m 2901.9662,1474.6952 a 694.37885,694.37885 0 1 1 -1388.7576,0 694.37885,694.37885 0 1 1 1388.7576,0 z"
       transform="matrix(-0.56594784,-0.70955669,0.70955669,-0.56594784,2202.9996,3651.009)" />
    <path
       sodipodi:type="arc"
       style="fill:none;stroke:none;display:inline"
       id="path3893-2-5"
       sodipodi:cx="2207.5874"
       sodipodi:cy="1474.6952"
       sodipodi:rx="694.37885"
       sodipodi:ry="694.37885"
       d="m 2901.9662,1474.6952 a 694.37885,694.37885 0 1 1 -1388.7576,0 694.37885,694.37885 0 1 1 1388.7576,0 z"
       transform="matrix(-0.51050475,0.93786242,0.93786242,0.51050475,1743.9225,-1573.2522)" />
    <path
       sodipodi:type="arc"
       style="fill:none;stroke:none"
       id="path3893-4"
       sodipodi:cx="2207.5874"
       sodipodi:cy="1474.6952"
       sodipodi:rx="694.37885"
       sodipodi:ry="694.37885"
       d="m 2901.9662,1474.6952 a 694.37885,694.37885 0 1 1 -1388.7576,0 694.37885,694.37885 0 1 1 1388.7576,0 z"
       transform="matrix(-0.56038477,-0.71395837,0.71395837,-0.56038477,2184.2275,3652.5223)" />
    <path
       sodipodi:type="arc"
       style="fill:none;stroke:none;display:inline"
       id="path3893-2-3"
       sodipodi:cx="2207.5874"
       sodipodi:cy="1474.6952"
       sodipodi:rx="694.37885"
       sodipodi:ry="694.37885"
       d="m 2901.9662,1474.6952 a 694.37885,694.37885 0 1 1 -1388.7576,0 694.37885,694.37885 0 1 1 1388.7576,0 z"
       transform="matrix(-0.53059272,0.92664577,0.92664577,0.53059272,1804.8096,-1578.1141)" />
    <linearGradient
       gradientTransform="matrix(0.749107,0,0,0.749107,-35.459862,91.44108)"
       gradientUnits="userSpaceOnUse"
       xlink:href="#linearGradient3388-6"
       id="linearGradient4416-2"
       y2="183.9644"
       x2="490.72305"
       y1="237.72447"
       x1="490.72305" />
    <linearGradient
       id="linearGradient3388-6">
      <stop
         offset="0"
         style="stop-color:#000000;stop-opacity:0"
         id="stop3390-3" />
      <stop
         offset="1"
         style="stop-color:#000000;stop-opacity:0.37113401"
         id="stop3392-4" />
    </linearGradient>
    <linearGradient
       gradientTransform="matrix(-0.3937741,0,0,0.393752,357.51969,122.00151)"
       gradientUnits="userSpaceOnUse"
       xlink:href="#path1082_2_-9"
       id="linearGradient2544-6"
       y2="303.14029"
       x2="606.91248"
       y1="104.50665"
       x1="541.33502" />
    <linearGradient
       gradientTransform="translate(287,-83)"
       gradientUnits="userSpaceOnUse"
       id="path1082_2_-9"
       y2="129.3468"
       x2="112.49853"
       y1="6.1372099"
       x1="112.49854">
      <stop
         offset="0"
         style="stop-color:#ffffff;stop-opacity:0"
         id="stop193-1" />
      <stop
         offset="1"
         style="stop-color:#ffffff;stop-opacity:0.27450982"
         id="stop195-6" />
      <midPointStop
         id="midPointStop197-8"
         style="stop-color:#FFFFFF"
         offset="0" />
      <midPointStop
         id="midPointStop199-4"
         style="stop-color:#FFFFFF"
         offset="0.5" />
      <midPointStop
         id="midPointStop201-2"
         style="stop-color:#000000"
         offset="1" />
    </linearGradient>
  </defs>
  <sodipodi:namedview
     id="base"
     pagecolor="#ffffff"
     bordercolor="#666666"
     borderopacity="1.0"
     inkscape:pageopacity="0.0"
     inkscape:pageshadow="2"
     inkscape:zoom="0.25"
     inkscape:cx="1397.356"
     inkscape:cy="1292.6023"
     inkscape:document-units="px"
     inkscape:current-layer="layer1"
     showgrid="false"
     inkscape:snap-page="true"
     showguides="true"
     inkscape:guide-bbox="true"
     inkscape:window-width="1920"
     inkscape:window-height="1176"
     inkscape:window-x="0"
     inkscape:window-y="0"
     inkscape:window-maximized="0">
    <inkscape:grid
       type="xygrid"
       id="grid4743"
       empspacing="5"
       visible="true"
       enabled="true"
       snapvisiblegridlinesonly="true" />
  </sodipodi:namedview>
  <metadata
     id="metadata7">
    <rdf:RDF>
      <cc:Work
         rdf:about="">
        <dc:format>image/svg+xml</dc:format>
        <dc:type
           rdf:resource="http://purl.org/dc/dcmitype/StillImage" />
        <dc:title />
      </cc:Work>
    </rdf:RDF>
  </metadata>
  <g
     inkscape:groupmode="layer"
     id="layer2"
     inkscape:label="bg"
     style="display:inline;filter:url(#filter4634)"
     sodipodi:insensitive="true">
    <rect
       style="fill:#333333;fill-opacity:1"
       id="rect3847"
       width="4000"
       height="2500"
       x="0"
       y="-2500"
       transform="scale(1,-1)" />
  </g>
  <g
     inkscape:groupmode="layer"
     id="layer3"
     inkscape:label="grafix"
     style="display:inline">
    <path
       style="font-size:medium;font-style:normal;font-variant:normal;font-weight:normal;font-stretch:normal;text-indent:0;text-align:start;text-decoration:none;line-height:normal;letter-spacing:normal;word-spacing:normal;text-transform:none;direction:ltr;block-progression:tb;writing-mode:lr-tb;text-anchor:start;baseline-shift:baseline;color:#000000;fill:#1481b8;fill-opacity:1;stroke:none;stroke-width:11.63749981;marker:none;visibility:visible;display:inline;overflow:visible;enable-background:accumulate;font-family:Sans;-inkscape-font-specification:Sans"
       d="m 2000,999.30183 c -138.4005,0 -250.6982,112.29767 -250.6982,250.69817 0,138.4005 112.2977,250.6982 250.6982,250.6982 138.4005,0 250.6982,-112.2977 250.6982,-250.6982 0,-138.4005 -112.2977,-250.69817 -250.6982,-250.69817 z m 0,9.98927 c 132.9961,0 240.7089,107.7128 240.7089,240.7089 0,132.9961 -107.7128,240.7089 -240.7089,240.7089 -132.9961,0 -240.7089,-107.7128 -240.7089,-240.7089 0,-132.9961 107.7128,-240.7089 240.7089,-240.7089 z"
       id="path4321"
       inkscape:connector-curvature="0" />
    <path
       style="fill:#1aa5eb;fill-opacity:1;stroke:none;display:inline"
       d="m 3145.2812,-928.31767 c -165.6838,0 -300,134.3162 -300,300 0,165.6838 134.3162,300 300,300 165.6838,0 300,-134.3162 300,-300 -10e-5,-165.6838 -134.3162,-300 -300,-300 z m -0.022,104.7956 c 32.3895,76.0111 40.0489,99.427 134.5192,275.3148 -11.9466,-7.173 -27.2787,-13.5982 -48.685,-19.1601 31.1432,15.9847 46.4229,30.7543 61.0607,42.0993 9.2928,17.2319 19.0205,35.3318 29.9228,55.4034 -55.29,-31.9199 -98.269,-51.8336 -138.3207,-59.6684 1.3318,-6.0288 2.086,-12.5139 2.2543,-19.2708 0.8894,-35.9086 -16.3029,-66.5669 -38.4309,-68.442 -22.1276,-1.8749 -40.8126,25.7489 -41.7018,61.6575 l -0.066,1.7901 c -0.067,8.4399 0.9135,16.5219 2.652,24 -40.491,7.6116 -83.9297,27.576 -139.978,59.9336 71.3114,-128.1316 106.4547,-194.811 128.8842,-241.6132 11.7387,9.8723 27.447,19.386 50.475,28.862 -21.4196,-14.9808 -34.6028,-28.2344 -45.3481,-39.6244 17.5226,-37.4392 27.0261,-62.7001 42.7626,-101.2818 z"
       id="path4108-5"
       inkscape:connector-curvature="0" />
    <rect
       style="fill:#1793d1;fill-opacity:1;stroke:#ffffff;stroke-width:3;stroke-miterlimit:4;stroke-opacity:1;stroke-dasharray:none"
       id="rect3955"
       width="113.13708"
       height="113.13708"
       x="-499.93756"
       y="-6.9922409"
       transform="scale(1,-1)" />
    <rect
       style="fill:#1481b8;fill-opacity:1;stroke:#ffffff;stroke-width:3;stroke-miterlimit:4;stroke-opacity:1;stroke-dasharray:none;display:inline"
       id="rect3955-3"
       width="113.13708"
       height="113.13708"
       x="-359.93756"
       y="-106.14482" />
    <rect
       style="fill:#4d4d4d;fill-opacity:1;stroke:#ffffff;stroke-width:3;stroke-miterlimit:4;stroke-opacity:1;stroke-dasharray:none;display:inline"
       id="rect3955-3-0"
       width="113.13708"
       height="113.13708"
       x="-499.93756"
       y="33.855186" />
    <rect
       style="fill:#333333;fill-opacity:1;stroke:#ffffff;stroke-width:3;stroke-miterlimit:4;stroke-opacity:1;stroke-dasharray:none;display:inline"
       id="rect3955-3-0-4"
       width="113.13708"
       height="113.13708"
       x="-359.93756"
       y="33.855186" />
    <path
       style="fill:#116f9e;fill-opacity:1;stroke:none"
       d="m -443.20602,243.62787 c -12.0388,0.012 -60.1874,3.8789 -60.0467,64.61 -0.072,19.6664 0.1657,23.7141 3.6889,38.0664 30.5947,56.9545 84.5491,48.1632 126.1397,121.5764 41.5906,-73.4132 95.5449,-64.6219 126.1397,-121.5764 3.5232,-14.3523 3.7607,-18.4 3.6889,-38.0664 0.1607,-69.407 -62.7467,-64.534 -62.7467,-64.534 -54.1698,0 -67.0819,48.4861 -67.0819,48.4861 0,0 -12.9121,-48.4861 -67.0819,-48.4861 0,0 -0.9802,-0.078 -2.7,-0.075 z"
       id="path4776"
       inkscape:connector-curvature="0" />
    <rect
       style="fill:#1aa5eb;fill-opacity:1;stroke:#ffffff;stroke-width:3;stroke-miterlimit:4;stroke-opacity:1;stroke-dasharray:none;display:inline"
       id="rect3955-9"
       width="113.13708"
       height="113.13708"
       x="-639.93756"
       y="-6.9922771"
       transform="scale(1,-1)" />
    <path
       style="fill:#1793d1;fill-opacity:1;stroke:none"
       d="m 2160.7783,791.42342 c -36.1937,0 -65.5343,29.34068 -65.5343,65.53433 0,36.19365 29.3406,65.53432 65.5343,65.53432 36.1936,0 65.5343,-29.34067 65.5343,-65.53432 0,-36.19365 -29.3407,-65.53433 -65.5343,-65.53433 z m -16.5875,36.01373 c 2.7133,0 5.2235,0.65482 7.7337,2.08548 0.3794,0.21146 1.593,0.9443 1.9116,1.22619 0.3797,0.35241 3.0226,2.42276 3.5388,3.09933 0.2578,0.32419 2.7758,3.3696 2.7758,3.36969 0,0 2.3988,-2.55138 2.8241,-2.98836 0.7285,-0.71886 1.4095,-1.18391 1.9407,-1.57859 1.5482,-1.16991 3.129,-2.2099 4.9048,-3.22481 1.2444,-0.71887 3.3849,-1.38497 4.5234,-1.53997 0.3188,-0.042 1.1654,-0.15607 1.5449,-0.21242 4.3257,-0.62021 9.9299,1.13165 13.102,2.96408 3.5062,2.01565 5.9151,4.98768 7.7821,8.70898 0.4098,0.83159 1.353,3.04682 1.5351,3.59652 0.9868,2.946 1.2152,6.66659 0.9268,10.34552 -0.4401,5.72271 -2.9015,11.60167 -5.5275,15.15371 -0.5312,0.70489 -1.7427,2.76198 -3.215,4.53795 -4.9026,5.86375 -12.1593,13.16148 -19.46,17.78479 -2.0491,1.2968 -9.8966,5.60004 -9.8966,5.60004 0,0 -8.1807,-4.56966 -9.4862,-5.37311 -8.2719,-5.13082 -17.4064,-12.40092 -22.5061,-20.61859 -1.7759,-2.8614 -3.828,-5.75391 -4.9965,-9.2496 -0.5465,-1.60699 -1.0303,-2.98924 -1.4097,-4.77938 -0.8954,-4.21447 -0.6247,-9.17419 0.5745,-13.10687 0.5311,-1.74783 1.3218,-3.62299 2.0807,-5.11717 2.7473,-5.34228 7.8464,-8.85272 14.5551,-10.21995 1.0626,-0.21146 2.0788,-0.36368 3.0655,-0.42003 0.3965,-0.0261 0.7903,-0.0437 1.178,-0.0437 z"
       id="path4722"
       inkscape:connector-curvature="0" />
    <path
       style="font-size:medium;font-style:normal;font-variant:normal;font-weight:normal;font-stretch:normal;text-indent:0;text-align:start;text-decoration:none;line-height:normal;letter-spacing:normal;word-spacing:normal;text-transform:none;direction:ltr;block-progression:tb;writing-mode:lr-tb;text-anchor:start;baseline-shift:baseline;color:#000000;fill:#1793d1;fill-opacity:1;stroke:none;stroke-width:60;marker:none;visibility:visible;display:inline;overflow:visible;enable-background:accumulate;font-family:Sans;-inkscape-font-specification:Sans"
       d="m 2000.0007,761.54205 c -36.1411,0 -65.5343,29.39713 -65.5343,65.54324 0,36.14585 29.3932,65.54299 65.5343,65.54299 36.1412,0 65.5344,-29.39714 65.5344,-65.54299 0,-36.14611 -29.3932,-65.54324 -65.5344,-65.54324 z m -5.1659,9.09249 0,54.67005 -38.2513,38.25658 c -8.2781,-9.85138 -13.261,-22.56924 -13.261,-36.47588 0,-29.61732 22.5877,-53.84955 51.5123,-56.45075 z m 10.3318,0 c 28.9242,2.6012 51.5124,26.83343 51.5124,56.45075 0,13.93155 -4.998,26.67248 -13.3024,36.5312 l -38.21,-38.21517 0,-54.76678 z m -10.3318,68.58326 0,44.31798 c -11.8759,-1.06795 -22.6812,-5.78091 -31.2958,-13.01827 l 31.2958,-31.29971 z m 10.3318,0.0917 31.245,31.25384 c -8.606,7.21245 -19.3932,11.90629 -31.245,12.97213 l 0,-44.22597 z"
       id="path3849-9-5-9"
       inkscape:connector-curvature="0" />
    <path
       style="font-size:medium;font-style:normal;font-variant:normal;font-weight:normal;font-stretch:normal;text-indent:0;text-align:start;text-decoration:none;line-height:normal;letter-spacing:normal;word-spacing:normal;text-transform:none;direction:ltr;block-progression:tb;writing-mode:lr-tb;text-anchor:start;baseline-shift:baseline;color:#000000;fill:#1793d1;fill-opacity:1;stroke:none;stroke-width:60;marker:none;visibility:visible;display:inline;overflow:visible;enable-background:accumulate;font-family:Sans;-inkscape-font-specification:Sans"
       d="m 2000.0007,1607.3719 c -36.1411,0 -65.5343,29.3971 -65.5343,65.5431 0,36.1459 29.3932,65.5431 65.5343,65.5431 36.1412,0 65.5344,-29.3972 65.5344,-65.5431 0,-36.146 -29.3932,-65.5431 -65.5344,-65.5431 z m -5.1659,9.0924 0,54.6701 -38.2513,38.2565 c -8.2781,-9.8514 -13.261,-22.5691 -13.261,-36.4759 0,-29.6172 22.5877,-53.8495 51.5123,-56.4507 z m 10.3318,0 c 28.9242,2.6012 51.5124,26.8335 51.5124,56.4507 0,13.9316 -4.998,26.6726 -13.3024,36.5313 l -38.21,-38.2152 0,-54.7668 z m -10.3318,68.5833 0,44.318 c -11.8759,-1.068 -22.6812,-5.781 -31.2958,-13.0183 l 31.2958,-31.2997 z m 10.3318,0.092 31.245,31.2539 c -8.606,7.2124 -19.3932,11.9063 -31.245,12.9721 l 0,-44.226 z"
       id="path3849-9-5-9-6"
       inkscape:connector-curvature="0" />
    <path
       style="font-size:medium;font-style:normal;font-variant:normal;font-weight:normal;font-stretch:normal;text-indent:0;text-align:start;text-decoration:none;line-height:normal;letter-spacing:normal;word-spacing:normal;text-transform:none;direction:ltr;block-progression:tb;writing-mode:lr-tb;text-anchor:start;baseline-shift:baseline;color:#000000;fill:#1793d1;fill-opacity:1;stroke:none;stroke-width:60;marker:none;visibility:visible;display:inline;overflow:visible;enable-background:accumulate;font-family:Sans;-inkscape-font-specification:Sans"
       d="m 1577.0859,1184.457 c -36.1411,0 -65.5343,29.3969 -65.5343,65.5431 0,36.1459 29.3932,65.5431 65.5343,65.5431 36.1411,0 65.5343,-29.3972 65.5343,-65.5431 0,-36.1462 -29.3932,-65.5431 -65.5343,-65.5431 z m -5.1659,9.0925 0,54.6699 -38.2513,38.2566 c -8.278,-9.8514 -13.2611,-22.5692 -13.2611,-36.4759 0,-29.6172 22.5879,-53.8495 51.5124,-56.4506 z m 10.3319,0 c 28.9242,2.6011 51.5122,26.8334 51.5122,56.4506 0,13.9316 -4.9978,26.6725 -13.3024,36.5312 l -38.2099,-38.2151 0,-54.7667 z m -10.3319,68.5831 0,44.318 c -11.8759,-1.0679 -22.6812,-5.7809 -31.2958,-13.0182 l 31.2958,-31.2998 z m 10.3319,0.092 31.2449,31.2539 c -8.606,7.2125 -19.3932,11.9062 -31.2449,12.9721 l 0,-44.226 z"
       id="path3849-9-5-9-63"
       inkscape:connector-curvature="0" />
    <path
       style="font-size:medium;font-style:normal;font-variant:normal;font-weight:normal;font-stretch:normal;text-indent:0;text-align:start;text-decoration:none;line-height:normal;letter-spacing:normal;word-spacing:normal;text-transform:none;direction:ltr;block-progression:tb;writing-mode:lr-tb;text-anchor:start;baseline-shift:baseline;color:#000000;fill:#1793d1;fill-opacity:1;stroke:none;stroke-width:60;marker:none;visibility:visible;display:inline;overflow:visible;enable-background:accumulate;font-family:Sans;-inkscape-font-specification:Sans"
       d="m 2422.9156,1184.457 c -36.141,0 -65.5343,29.3971 -65.5343,65.5432 0,36.1459 29.3933,65.543 65.5343,65.543 36.1412,0 65.5344,-29.3971 65.5344,-65.543 0,-36.1461 -29.3932,-65.5432 -65.5344,-65.5432 z m -5.1659,9.0925 0,54.67 -38.2513,38.2565 c -8.278,-9.8514 -13.261,-22.5692 -13.261,-36.4759 0,-29.6172 22.5877,-53.8495 51.5123,-56.4507 z m 10.3319,0 c 28.9242,2.6012 51.5122,26.8334 51.5122,56.4507 0,13.9315 -4.9978,26.6724 -13.3023,36.5311 l -38.21,-38.2151 0,-54.7667 z m -10.3319,68.5832 0,44.318 c -11.8759,-1.068 -22.6813,-5.7809 -31.2958,-13.0182 l 31.2958,-31.2998 z m 10.3319,0.092 31.2448,31.254 c -8.6059,7.2124 -19.393,11.9061 -31.2448,12.972 l 0,-44.226 z"
       id="path3849-9-5-9-6-7"
       inkscape:connector-curvature="0" />
    <path
       style="font-size:medium;font-style:normal;font-variant:normal;font-weight:normal;font-stretch:normal;text-indent:0;text-align:start;text-decoration:none;line-height:normal;letter-spacing:normal;word-spacing:normal;text-transform:none;direction:ltr;block-progression:tb;writing-mode:lr-tb;text-anchor:start;baseline-shift:baseline;color:#000000;fill:#1793d1;fill-opacity:1;stroke:none;stroke-width:60;marker:none;visibility:visible;display:inline;overflow:visible;enable-background:accumulate;font-family:Sans;-inkscape-font-specification:Sans"
       d="m 1700.9563,1483.4999 c -36.1412,-10e-5 -65.5344,29.3971 -65.5326,65.545 0,36.1459 29.3932,65.543 65.5324,65.5448 36.1411,0 65.5344,-29.3971 65.5325,-65.5448 0,-36.1462 -29.3931,-65.5432 -65.5326,-65.545 z m -5.166,9.0925 0,54.67 -38.2539,38.2539 c -8.2782,-9.8515 -13.261,-22.5692 -13.261,-36.4759 0,-29.6172 22.5877,-53.8495 51.5122,-56.4507 z m 10.3319,0 c 28.9242,2.6011 51.5122,26.8334 51.5122,56.4508 0,13.9315 -4.9978,26.6724 -13.3025,36.5312 l -38.2125,-38.2127 0,-54.7667 z m -10.3319,68.5832 0,44.318 c -11.8759,-1.0679 -22.6812,-5.7809 -31.2958,-13.0183 l 31.2977,-31.2978 z m 10.332,0.092 31.2432,31.2555 c -8.6059,7.2124 -19.3932,11.9062 -31.245,12.9722 l 10e-5,-44.226 z"
       id="path3849-9-5-9-63-3"
       inkscape:connector-curvature="0" />
    <path
       style="font-size:medium;font-style:normal;font-variant:normal;font-weight:normal;font-stretch:normal;text-indent:0;text-align:start;text-decoration:none;line-height:normal;letter-spacing:normal;word-spacing:normal;text-transform:none;direction:ltr;block-progression:tb;writing-mode:lr-tb;text-anchor:start;baseline-shift:baseline;color:#000000;fill:#1793d1;fill-opacity:1;stroke:none;stroke-width:60;marker:none;visibility:visible;display:inline;overflow:visible;enable-background:accumulate;font-family:Sans;-inkscape-font-specification:Sans"
       d="m 2299.0491,885.41015 c -36.1412,3e-5 -65.5344,29.39717 -65.5345,65.5431 0,36.14586 29.3931,65.54305 65.5325,65.54485 36.1411,0 65.5343,-29.39713 65.5343,-65.54299 0,-36.14612 -29.3932,-65.5432 -65.5326,-65.54497 z m -5.166,9.0925 0,54.67004 -38.2515,38.25645 c -8.278,-9.85137 -13.261,-22.56924 -13.261,-36.47586 0,-29.61732 22.5878,-53.84956 51.5124,-56.45077 z m 10.3319,-2e-5 c 28.9243,2.60123 51.5122,26.83342 51.5122,56.4508 0,13.9315 -4.9977,26.67243 -13.3023,36.53115 l -38.2127,-38.21254 0,-54.7668 z m -10.3319,68.58325 0,44.31802 c -11.8758,-1.068 -22.6812,-5.7809 -31.2958,-13.01829 l 31.2959,-31.2996 z m 10.3319,0.0918 31.2432,31.25558 c -8.606,7.21244 -19.3932,11.90624 -31.245,12.97204 l 0,-44.2259 z"
       id="path3849-9-5-9-6-7-3"
       inkscape:connector-curvature="0" />
    <path
       style="font-size:medium;font-style:normal;font-variant:normal;font-weight:normal;font-stretch:normal;text-indent:0;text-align:start;text-decoration:none;line-height:normal;letter-spacing:normal;word-spacing:normal;text-transform:none;direction:ltr;block-progression:tb;writing-mode:lr-tb;text-anchor:start;baseline-shift:baseline;color:#000000;fill:#1793d1;fill-opacity:1;stroke:none;stroke-width:60;marker:none;visibility:visible;display:inline;overflow:visible;enable-background:accumulate;font-family:Sans;-inkscape-font-specification:Sans"
       d="m 2299.047,1483.501 c -36.141,0 -65.5343,29.3971 -65.5326,65.5451 0,36.1458 29.3933,65.5428 65.5324,65.5447 36.1413,0 65.5345,-29.3972 65.5326,-65.5447 0,-36.1463 -29.3932,-65.5434 -65.5326,-65.5451 z m -5.1659,9.0925 0,54.67 -38.254,38.254 c -8.278,-9.8514 -13.261,-22.5693 -13.261,-36.4759 0,-29.6173 22.5879,-53.8495 51.5123,-56.4507 z m 10.3318,0 c 28.9242,2.6011 51.5123,26.8334 51.5123,56.4508 0,13.9315 -4.9978,26.6725 -13.3023,36.5311 l -38.2126,-38.2124 0,-54.7668 z m -10.3318,68.5833 0,44.3179 c -11.8759,-1.0679 -22.6812,-5.7808 -31.2958,-13.0181 l 31.2977,-31.2979 z m 10.3319,0.092 31.2433,31.2554 c -8.6061,7.2125 -19.3932,11.9063 -31.245,12.9721 l 1e-4,-44.2259 z"
       id="path3849-9-5-9-63-3-9"
       inkscape:connector-curvature="0" />
    <path
       style="font-size:medium;font-style:normal;font-variant:normal;font-weight:normal;font-stretch:normal;text-indent:0;text-align:start;text-decoration:none;line-height:normal;letter-spacing:normal;word-spacing:normal;text-transform:none;direction:ltr;block-progression:tb;writing-mode:lr-tb;text-anchor:start;baseline-shift:baseline;color:#000000;fill:#1793d1;fill-opacity:1;stroke:none;stroke-width:60;marker:none;visibility:visible;display:inline;overflow:visible;enable-background:accumulate;font-family:Sans;-inkscape-font-specification:Sans"
       d="m 1700.955,885.40905 c -36.1411,6e-5 -65.5343,29.3972 -65.5326,65.54494 0,36.14589 29.3931,65.54301 65.5324,65.54491 36.1413,0 65.5344,-29.39718 65.5325,-65.54485 0,-36.14613 -29.3932,-65.54322 -65.5326,-65.545 z m -5.1658,9.09254 0,54.67005 -38.2541,38.25398 c -8.278,-9.85141 -13.2611,-22.56927 -13.2611,-36.4759 0,-29.61728 22.5879,-53.84953 51.5124,-56.4508 z m 10.3317,-7e-5 c 28.9242,2.60128 51.5124,26.83345 51.5123,56.4508 10e-5,13.93152 -4.9979,26.67243 -13.3023,36.53119 l -38.2126,-38.21258 0,-54.76675 z m -10.3317,68.5833 0,44.31798 c -11.876,-1.068 -22.6813,-5.7809 -31.2959,-13.01826 l 31.2978,-31.29776 z m 10.3317,0.0917 31.2433,31.25555 c -8.6061,7.21243 -19.3933,11.90623 -31.2449,12.97213 l 0,-44.22595 z"
       id="path3849-9-5-9-6-7-3-5"
       inkscape:connector-curvature="0" />
    <path
       style="fill:#1793d1;fill-opacity:1;stroke:none;display:inline"
       d="m 1837.4755,1578.733 c -36.1935,0 -65.5342,29.3406 -65.5342,65.5344 0,36.1936 29.3407,65.5343 65.5342,65.5343 36.1938,0 65.5344,-29.3407 65.5344,-65.5343 0,-36.1938 -29.3406,-65.5344 -65.5344,-65.5344 z m -16.5875,36.0137 c 2.7135,0 5.2236,0.6548 7.7337,2.0855 0.3794,0.2114 1.5931,0.9443 1.9118,1.2262 0.3796,0.3524 3.0226,2.4227 3.5387,3.0993 0.2579,0.3242 2.7758,3.3697 2.7758,3.3698 0,0 2.3989,-2.5515 2.8241,-2.9884 0.7285,-0.7189 1.4096,-1.1839 1.9406,-1.5786 1.5482,-1.17 3.129,-2.2099 4.905,-3.2248 1.2444,-0.719 3.3848,-1.385 4.5234,-1.54 0.3187,-0.042 1.1654,-0.1561 1.5448,-0.2125 4.3258,-0.6202 9.9299,1.1318 13.102,2.9641 3.5063,2.0157 5.9152,4.9877 7.7822,8.709 0.4097,0.8316 1.3529,3.0468 1.5351,3.5965 0.9866,2.946 1.2152,6.6666 0.9268,10.3455 -0.4401,5.7228 -2.9016,11.6017 -5.5275,15.1538 -0.5312,0.7048 -1.7429,2.762 -3.2152,4.5379 -4.9025,5.8637 -12.1592,13.1615 -19.46,17.7849 -2.049,1.2967 -9.8964,5.5999 -9.8964,5.5999 0,0 -8.1808,-4.5696 -9.4862,-5.373 -8.2719,-5.1309 -17.4064,-12.401 -22.5062,-20.6187 -1.7759,-2.8613 -3.8279,-5.7539 -4.9966,-9.2496 -0.5463,-1.607 -1.0302,-2.9893 -1.4096,-4.7793 -0.8954,-4.2146 -0.6246,-9.1742 0.5745,-13.1069 0.5312,-1.7478 1.3218,-3.6229 2.0807,-5.1171 2.7474,-5.3423 7.8464,-8.8528 14.5551,-10.22 1.0626,-0.2115 2.0788,-0.3637 3.0654,-0.42 0.3966,-0.026 0.7904,-0.044 1.178,-0.044 z"
       id="path4722-8"
       inkscape:connector-curvature="0" />
    <path
       style="fill:#1793d1;fill-opacity:1;stroke:none;display:inline"
       d="m 1835.0757,792.41748 c -36.1936,-5e-5 -65.5344,29.34064 -65.5344,65.53433 0,36.19361 29.3408,65.53434 65.5344,65.5343 36.1937,2e-5 65.5343,-29.34065 65.5343,-65.53433 0,-36.19361 -29.3406,-65.53435 -65.5343,-65.5343 z m -16.5875,36.01375 c 2.7134,-5e-5 5.2234,0.65476 7.7337,2.08546 0.3794,0.21144 1.593,0.94431 1.9117,1.2262 0.3797,0.35238 3.0226,2.42275 3.5388,3.09931 0.2578,0.3242 2.7757,3.36962 2.7757,3.36967 0,0 2.3989,-2.55138 2.8241,-2.98834 0.7299,-0.7175 1.4096,-1.18388 1.9407,-1.57862 1.5482,-1.16991 3.129,-2.20985 4.9048,-3.22477 1.2445,-0.71888 3.385,-1.38497 4.5235,-1.54 0.3188,-0.042 1.1654,-0.15605 1.5449,-0.21242 4.3257,-0.62021 9.9298,1.13166 13.102,2.96411 3.5062,2.01562 5.9151,4.98769 7.7821,8.70896 0.4097,0.83159 1.353,3.04685 1.5351,3.59655 0.9867,2.94593 1.2152,6.66656 0.9268,10.34548 -0.4401,5.72274 -2.9016,11.60172 -5.5275,15.15372 -0.5312,0.7049 -1.7427,2.76199 -3.2152,4.53794 -4.9025,5.86376 -12.1592,13.16151 -19.4599,17.78479 -2.049,1.29682 -9.8966,5.60005 -9.8966,5.60005 0,0 -8.1806,-4.56966 -9.4861,-5.37312 -8.2719,-5.13079 -17.4064,-12.40089 -22.5061,-20.61854 -1.776,-2.86141 -3.828,-5.75392 -4.9967,-9.24961 -0.5463,-1.60703 -1.0302,-2.98923 -1.4095,-4.77939 -0.8954,-4.21447 -0.6247,-9.17417 0.5744,-13.10688 0.5312,-1.74786 1.3218,-3.62298 2.0807,-5.1172 2.7474,-5.34228 7.8464,-8.85268 14.5551,-10.21993 1.0627,-0.21146 2.0788,-0.36366 3.0655,-0.41999 0.3966,-0.0263 0.7904,-0.0437 1.178,-0.0437 z"
       id="path4722-7"
       inkscape:connector-curvature="0" />
    <path
       style="fill:#1793d1;fill-opacity:1;stroke:none;display:inline"
       d="m 2163.1781,1577.7389 c -36.1936,-10e-5 -65.5343,29.3407 -65.5343,65.5344 0,36.1935 29.3407,65.5343 65.5343,65.5343 36.1937,0 65.5343,-29.3406 65.5343,-65.5343 0,-36.1936 -29.3406,-65.5345 -65.5343,-65.5344 z m -16.5876,36.0139 c 2.7135,-10e-5 5.2237,0.6547 7.7339,2.0854 0.3794,0.2114 1.593,0.9443 1.9116,1.2261 0.3797,0.3525 3.0227,2.4228 3.5388,3.0993 0.2576,0.3245 2.7757,3.3697 2.7757,3.3697 0,0 2.3989,-2.5514 2.8241,-2.9884 0.7299,-0.7173 1.4096,-1.1838 1.9408,-1.5785 1.5481,-1.1699 3.129,-2.2099 4.9048,-3.2248 1.2445,-0.7189 3.3849,-1.385 4.5234,-1.54 0.3188,-0.042 1.1655,-0.156 1.5449,-0.2123 4.3257,-0.6203 9.9298,1.1314 13.102,2.9641 3.5061,2.0155 5.9151,4.9876 7.7821,8.7089 0.4097,0.8315 1.353,3.0469 1.5351,3.5965 0.9867,2.9461 1.2152,6.6665 0.9268,10.3455 -0.4401,5.7226 -2.9015,11.6017 -5.5275,15.1536 -0.5311,0.7051 -1.7428,2.7622 -3.2153,4.5381 -4.9024,5.8637 -12.1591,13.1614 -19.4598,17.7847 -2.049,1.2969 -9.8965,5.6002 -9.8965,5.6002 0,0 -8.1807,-4.5699 -9.4862,-5.3732 -8.2719,-5.1308 -17.4064,-12.4009 -22.5061,-20.6186 -1.776,-2.8614 -3.828,-5.7538 -4.9966,-9.2495 -0.5463,-1.6071 -1.0302,-2.9893 -1.4096,-4.7794 -0.8954,-4.2145 -0.6247,-9.1742 0.5744,-13.1069 0.5312,-1.748 1.3218,-3.6231 2.0808,-5.1173 2.7474,-5.3421 7.8463,-8.8526 14.555,-10.2199 1.0627,-0.2115 2.0788,-0.3636 3.0656,-0.42 0.3965,-0.026 0.7902,-0.044 1.1778,-0.044 z"
       id="path4722-8-1"
       inkscape:connector-curvature="0" />
    <path
       style="fill:#1793d1;fill-opacity:1;stroke:none;display:inline"
       d="m 1605.4722,1023.4269 c -36.1937,-1e-4 -65.5345,29.3405 -65.5344,65.5343 -10e-5,36.1937 29.3407,65.5343 65.5344,65.5343 36.1937,0 65.5343,-29.3406 65.5342,-65.5344 10e-5,-36.1936 -29.3407,-65.5343 -65.5342,-65.5342 z m -16.5875,36.0137 c 2.7133,-10e-5 5.2233,0.6547 7.7337,2.0855 0.3794,0.2114 1.593,0.9443 1.9117,1.2262 0.3797,0.3523 3.0226,2.4227 3.5387,3.0993 0.2579,0.3243 2.7758,3.3696 2.7757,3.3696 0,0 2.3989,-2.5514 2.8242,-2.9884 0.7298,-0.7174 1.4096,-1.1837 1.9406,-1.5785 1.5482,-1.1699 3.1291,-2.2099 4.905,-3.2248 1.2444,-0.7189 3.3849,-1.385 4.5234,-1.54 0.3187,-0.042 1.1654,-0.1561 1.5447,-0.2124 4.3258,-0.6202 9.93,1.1318 13.1021,2.9641 3.5062,2.0156 5.9151,4.9877 7.7822,8.709 0.4097,0.8316 1.3529,3.0468 1.5351,3.5966 0.9866,2.9458 1.2152,6.6665 0.9268,10.3454 -0.4401,5.7228 -2.9016,11.6018 -5.5276,15.1537 -0.5311,0.7049 -1.7427,2.7621 -3.2152,4.5379 -4.9024,5.8638 -12.1591,13.1616 -19.4599,17.7848 -2.049,1.2969 -9.8966,5.6001 -9.8966,5.6001 0,0 -8.1807,-4.5697 -9.4861,-5.3732 -8.2718,-5.1307 -17.4063,-12.4008 -22.5061,-20.6185 -1.7759,-2.8613 -3.8279,-5.7539 -4.9966,-9.2496 -0.5464,-1.607 -1.0302,-2.9892 -1.4096,-4.7793 -0.8954,-4.2146 -0.6246,-9.1743 0.5745,-13.1069 0.5311,-1.7478 1.3218,-3.623 2.0806,-5.1172 2.7473,-5.3423 7.8465,-8.8527 14.5552,-10.22 1.0625,-0.2114 2.0788,-0.3635 3.0655,-0.4199 0.3965,-0.026 0.7904,-0.044 1.1779,-0.044 z"
       id="path4722-7-6"
       inkscape:connector-curvature="0" />
    <path
       style="fill:#1793d1;fill-opacity:1;stroke:none;display:inline"
       d="m 2392.7818,1346.7296 c -36.1937,0 -65.5343,29.3406 -65.5343,65.5343 0,36.1936 29.3407,65.5343 65.5343,65.5343 36.1937,0 65.5344,-29.3406 65.5344,-65.5343 0,-36.1937 -29.3408,-65.5343 -65.5344,-65.5343 z m -16.5874,36.0137 c 2.7132,-1e-4 5.2235,0.6549 7.7337,2.0855 0.3793,0.2114 1.593,0.9443 1.9116,1.2262 0.3796,0.3524 3.0227,2.4227 3.5387,3.0992 0.2577,0.3245 2.776,3.3698 2.7759,3.3698 0,0 2.3989,-2.5514 2.824,-2.9883 0.7299,-0.7175 1.4096,-1.1839 1.9407,-1.5786 1.5482,-1.17 3.129,-2.2099 4.9049,-3.2248 1.2444,-0.7191 3.3848,-1.3851 4.5234,-1.5401 0.3187,-0.042 1.1654,-0.1561 1.5448,-0.2124 4.3257,-0.6202 9.9299,1.1316 13.1022,2.9642 3.5061,2.0157 5.9151,4.9876 7.7819,8.7088 0.4099,0.8316 1.353,3.0469 1.5352,3.5965 0.9866,2.946 1.2152,6.6666 0.9268,10.3455 -0.4401,5.7228 -2.9015,11.6018 -5.5276,15.1538 -0.5311,0.705 -1.7426,2.7621 -3.2151,4.538 -4.9025,5.8637 -12.1592,13.1616 -19.46,17.7847 -2.0491,1.2969 -9.8965,5.6001 -9.8965,5.6001 0,0 -8.1807,-4.5697 -9.4862,-5.3732 -8.2719,-5.1307 -17.4063,-12.4007 -22.5061,-20.6184 -1.7757,-2.8614 -3.8279,-5.754 -4.9965,-9.2497 -0.5464,-1.6071 -1.0302,-2.9892 -1.4096,-4.7793 -0.8955,-4.2146 -0.6247,-9.1742 0.5745,-13.1069 0.531,-1.7479 1.3217,-3.6229 2.0806,-5.1173 2.7475,-5.3421 7.8464,-8.8526 14.5551,-10.2199 1.0627,-0.2114 2.0788,-0.3636 3.0656,-0.4199 0.3963,-0.027 0.7902,-0.044 1.178,-0.044 z"
       id="path4722-8-1-2"
       inkscape:connector-curvature="0" />
    <path
       style="fill:#1793d1;fill-opacity:1;stroke:none;display:inline"
       d="m 1606.4662,1349.1295 c -36.1937,-10e-5 -65.5343,29.3406 -65.5343,65.5343 0,36.1937 29.3406,65.5342 65.5343,65.5342 36.1937,0 65.5344,-29.3405 65.5343,-65.5343 10e-5,-36.1936 -29.3406,-65.5343 -65.5343,-65.5342 z m -16.5876,36.0137 c 2.7134,0 5.2235,0.6547 7.734,2.0855 0.3793,0.2113 1.5929,0.9443 1.9115,1.2261 0.3796,0.3525 3.0227,2.4229 3.5387,3.0993 0.2577,0.3245 2.7757,3.3697 2.7757,3.3697 0,0 2.3989,-2.5514 2.8242,-2.9883 0.7298,-0.7176 1.4095,-1.1838 1.9407,-1.5787 1.5481,-1.1699 3.129,-2.2097 4.9049,-3.2246 1.2445,-0.7191 3.3849,-1.3852 4.5235,-1.5402 0.3186,-0.042 1.1653,-0.1561 1.5447,-0.2124 4.3258,-0.6202 9.9299,1.1318 13.1021,2.9642 3.5062,2.0155 5.9152,4.9877 7.782,8.7089 0.4098,0.8317 1.3531,3.0469 1.5352,3.5967 0.9865,2.9458 1.2152,6.6665 0.9268,10.3453 -0.4402,5.7229 -2.9017,11.6018 -5.5275,15.1537 -0.5312,0.705 -1.7427,2.7622 -3.2154,4.538 -4.9023,5.8638 -12.159,13.1616 -19.4599,17.7849 -2.0489,1.2968 -9.8964,5.5999 -9.8964,5.5999 0,0 -8.1808,-4.5697 -9.4861,-5.3732 -8.2719,-5.1306 -17.4063,-12.4007 -22.5062,-20.6184 -1.7759,-2.8613 -3.8279,-5.7539 -4.9966,-9.2496 -0.5463,-1.607 -1.0302,-2.9892 -1.4095,-4.7793 -0.8955,-4.2147 -0.6247,-9.1742 0.5745,-13.107 0.531,-1.7477 1.3218,-3.6229 2.0806,-5.1172 2.7473,-5.3422 7.8464,-8.8526 14.555,-10.2199 1.0628,-0.2115 2.0789,-0.3636 3.0657,-0.42 0.3963,-0.026 0.7902,-0.044 1.1777,-0.044 z"
       id="path4722-7-6-5"
       inkscape:connector-curvature="0" />
    <path
       style="fill:#1793d1;fill-opacity:1;stroke:none;display:inline"
       d="m 2391.7876,1021.027 c -36.1936,0 -65.5344,29.3406 -65.5344,65.5343 0,36.1937 29.3409,65.5344 65.5344,65.5344 36.1938,0 65.5344,-29.3406 65.5343,-65.5344 1e-4,-36.1936 -29.3406,-65.5343 -65.5343,-65.5343 z m -16.5874,36.0138 c 2.7133,-10e-5 5.2235,0.6548 7.7338,2.0855 0.3793,0.2114 1.593,0.9443 1.9117,1.2261 0.3797,0.3525 3.0226,2.4227 3.5387,3.0993 0.2577,0.3245 2.7758,3.3697 2.7757,3.3697 0,0 2.3989,-2.5514 2.8242,-2.9884 0.7298,-0.7174 1.4096,-1.1838 1.9406,-1.5785 1.5481,-1.1699 3.1291,-2.2099 4.9049,-3.2249 1.2444,-0.7188 3.3848,-1.3849 4.5233,-1.5399 0.319,-0.042 1.1655,-0.1561 1.5448,-0.2124 4.3258,-0.6202 9.9301,1.1315 13.1021,2.9641 3.5063,2.0156 5.9153,4.9877 7.7821,8.709 0.4099,0.8314 1.3531,3.0468 1.5353,3.5964 0.9866,2.946 1.2151,6.6666 0.9267,10.3455 -0.44,5.7227 -2.9016,11.6018 -5.5275,15.1538 -0.5313,0.7049 -1.7427,2.7621 -3.2152,4.5379 -4.9024,5.8638 -12.1592,13.1615 -19.46,17.7848 -2.049,1.2969 -9.8966,5.6001 -9.8966,5.6001 0,0 -8.1805,-4.5699 -9.4861,-5.3732 -8.272,-5.1308 -17.4062,-12.4008 -22.506,-20.6185 -1.7759,-2.8614 -3.8279,-5.7539 -4.9967,-9.2497 -0.5463,-1.607 -1.0301,-2.9891 -1.4095,-4.7792 -0.8955,-4.2147 -0.6247,-9.1744 0.5743,-13.1069 0.5313,-1.7479 1.3218,-3.6231 2.0807,-5.1173 2.7475,-5.3422 7.8465,-8.8526 14.5552,-10.2199 1.0626,-0.2115 2.0788,-0.3636 3.0655,-0.42 0.3965,-0.026 0.7903,-0.044 1.178,-0.044 z"
       id="path4722-8-1-2-2"
       inkscape:connector-curvature="0" />
    <path
       style="font-size:medium;font-style:normal;font-variant:normal;font-weight:normal;font-stretch:normal;text-indent:0;text-align:start;text-decoration:none;line-height:normal;letter-spacing:normal;word-spacing:normal;text-transform:none;direction:ltr;block-progression:tb;writing-mode:lr-tb;text-anchor:start;baseline-shift:baseline;color:#000000;fill:#1793d1;fill-opacity:1;stroke:none;stroke-width:175;marker:none;visibility:visible;display:inline;overflow:visible;enable-background:accumulate;font-family:Sans;-inkscape-font-specification:Sans"
       d="m 1865.625,-1275.5938 c -275.123,0 -500,224.7891 -500,499.80479 0,275.0157 224.877,499.7743 500,499.7744 275.123,0 500,-224.7587 500,-499.7744 0,-275.01569 -224.877,-499.80479 -500,-499.80479 z m 0,23.0871 c 35.2854,0 63.9797,28.7088 63.9797,63.9853 2e-4,35.2763 -28.6943,63.9548 -63.9797,63.9548 -35.2853,0 -63.9797,-28.6785 -63.9797,-63.9548 0,-35.2765 28.6944,-63.9853 63.9797,-63.9853 z m -5.0341,8.875 c -28.2398,2.5386 -50.3111,26.2055 -50.3111,55.1103 0,13.5721 4.8848,25.977 12.9668,35.5914 l 37.3443,-37.3298 0,-53.3719 z m 10.0682,0 0,53.4634 37.3138,37.2993 c 8.1078,-9.6215 12.9973,-22.056 12.9973,-35.6524 0,-28.9048 -22.0718,-52.5717 -50.3111,-55.1103 z m 151.9405,20.3118 c 35.3366,0 63.9798,28.6319 63.9798,63.9548 0,35.3229 -28.6432,63.9548 -63.9798,63.9548 -35.3366,0 -63.9797,-28.6319 -63.9797,-63.9548 0,-35.3229 28.6431,-63.9548 63.9797,-63.9548 z m -318.0071,0.9455 c 35.3367,-10e-5 63.9798,28.6318 63.9798,63.9547 -10e-5,35.323 -28.6431,63.9853 -63.9798,63.9853 -35.3365,1e-4 -63.9797,-28.6624 -63.9797,-63.9853 0,-35.3229 28.6432,-63.9548 63.9797,-63.9547 z m 301.8063,34.1885 c -0.3787,0 -0.7723,0 -1.1593,0.03 -0.9634,0.055 -1.9526,0.2206 -2.99,0.427 -6.55,1.3343 -11.5052,4.7591 -14.1876,9.9729 -0.7405,1.4582 -1.5254,3.2959 -2.0441,5.0017 -1.1707,3.8381 -1.4232,8.6657 -0.549,12.7787 0.3703,1.7471 0.8397,3.0979 1.3728,4.6663 1.1409,3.4116 3.1477,6.2349 4.8817,9.0274 4.979,8.02 13.8913,15.1215 21.9673,20.1289 1.2745,0.7841 9.2445,5.2457 9.2445,5.2457 0,0 7.6712,-4.2241 9.6718,-5.4897 7.1279,-4.5121 14.2212,-11.6308 19.0079,-17.3535 1.4372,-1.7333 2.6241,-3.7343 3.1425,-4.4222 2.5639,-3.4666 4.9401,-9.2066 5.37,-14.7917 0.2813,-3.5904 0.079,-7.2198 -0.8849,-10.0949 -0.1781,-0.5365 -1.0949,-2.6957 -1.4952,-3.5073 -1.8227,-3.6318 -4.1737,-6.5418 -7.5968,-8.509 -3.0973,-1.7883 -8.5911,-3.4721 -12.8143,-2.8668 -0.3707,0.055 -1.1836,0.142 -1.4951,0.183 -1.1117,0.1512 -3.209,0.8233 -4.4239,1.5249 -1.7338,0.9905 -3.2784,1.9995 -4.7902,3.1413 -0.5187,0.3852 -1.1803,0.8233 -1.8916,1.5249 -0.415,0.4265 -2.7461,2.9278 -2.7461,2.9278 0,-10e-5 -2.4635,-2.9774 -2.7151,-3.2938 -0.5041,-0.6603 -3.0769,-2.6754 -3.4478,-3.0193 -0.3111,-0.2751 -1.4905,-0.9831 -1.8612,-1.1894 -2.4506,-1.3963 -4.9175,-2.0434 -7.5663,-2.0434 z m -317.9766,0.9759 c -0.3786,0 -0.7722,0.01 -1.1593,0.03 -0.9633,0.055 -1.9524,0.2206 -2.99,0.427 -6.55,1.3344 -11.5355,4.7592 -14.218,9.9729 -0.7406,1.4583 -1.5254,3.2654 -2.0441,4.9712 -1.1708,3.8382 -1.4232,8.6962 -0.5491,12.8093 0.3704,1.7471 0.8397,3.0979 1.3729,4.6662 1.141,3.4116 3.1476,6.2349 4.8817,9.0275 4.9789,8.02 13.8912,15.1215 21.9673,20.1288 1.2744,0.7842 9.2749,5.2152 9.2749,5.2152 0,0 7.6714,-4.1935 9.6719,-5.4592 7.1277,-4.512 14.1907,-11.6307 18.9772,-17.3534 1.4376,-1.7333 2.6241,-3.7343 3.1426,-4.4223 2.5639,-3.4665 4.9706,-9.2066 5.4004,-14.7916 0.2815,-3.5904 0.048,-7.2199 -0.9152,-10.0949 -0.1783,-0.5365 -1.095,-2.6957 -1.4952,-3.5073 -1.8229,-3.6318 -4.1739,-6.5419 -7.5969,-8.509 -3.0972,-1.7884 -8.5606,-3.5027 -12.7838,-2.8974 -0.3707,0.055 -1.2141,0.1725 -1.5256,0.2135 -1.1115,0.1513 -3.1784,0.7929 -4.3934,1.4944 -1.7338,0.9905 -3.2784,2.0301 -4.7901,3.1719 -0.5184,0.3852 -1.179,0.8246 -1.8917,1.5249 -0.4149,0.4264 -2.7765,2.9278 -2.7765,2.9278 0,-10e-5 -2.4636,-2.9774 -2.7152,-3.2938 -0.5041,-0.6603 -3.0768,-2.6754 -3.4478,-3.0193 -0.311,-0.2751 -1.4905,-0.9831 -1.8611,-1.1895 -2.4509,-1.3963 -4.8869,-2.0434 -7.5359,-2.0433 z m 172.1687,10.5219 -30.5714,30.5592 c 8.411,7.0633 18.9764,11.645 30.5714,12.6873 l 0,-43.2465 z m 10.0682,0.091 0,43.155 c 11.5716,-1.0402 22.1079,-5.6178 30.5103,-12.6568 l -30.5103,-30.4982 z m -296.9855,44.9849 c 35.2836,0 63.9797,28.7087 63.9797,63.9853 0,35.2781 -28.6942,63.9548 -63.9797,63.9548 -35.2837,0 -64.0103,-28.6784 -64.0103,-63.9548 0,-35.2782 28.725,-63.9852 64.0103,-63.9853 z m 583.9333,0 c 35.2837,0 63.9798,28.7087 63.9798,63.9853 -2e-4,35.2763 -28.7249,63.9548 -64.0103,63.9548 -35.2837,0 -63.9797,-28.6785 -63.9797,-63.9548 10e-5,-35.2764 28.7248,-63.9853 64.0102,-63.9853 z m -588.9981,8.875 c -28.2394,2.5387 -50.2805,26.175 -50.2805,55.0798 0,13.5721 4.8544,26.0075 12.9363,35.622 l 37.3442,-37.3604 0,-53.3414 z m 10.0989,0 0,53.4634 37.3138,37.2689 c 8.1081,-9.6217 12.9669,-22.0561 12.9668,-35.6525 10e-5,-28.9048 -22.0413,-52.5411 -50.2806,-55.0798 z m 573.8346,0 c -28.2397,2.5387 -50.2806,26.2055 -50.2806,55.1103 0,13.5721 4.854,25.977 12.9363,35.5915 l 37.3443,-37.3299 0,-53.3719 z m 10.0989,0 0,53.4634 37.3137,37.2994 c 8.1079,-9.6216 12.9668,-22.0561 12.9668,-35.6525 0,-28.9049 -22.0412,-52.5716 -50.2805,-55.1103 z m -297.0162,17.933 c 182.7853,0 329.1432,146.30089 329.1432,329.01479 0,182.7139 -146.3579,328.9843 -329.1432,328.9844 -182.7853,0 -329.1432,-146.2705 -329.1432,-328.9844 0,-182.7139 146.3579,-329.01479 329.1432,-329.01479 z m -297.0162,49.0106 -30.5407,30.5288 c 8.4109,7.0632 18.9458,11.6755 30.5407,12.7177 l 0,-43.2465 z m 583.9335,0 -30.5408,30.5288 c 8.4108,7.0633 18.946,11.6755 30.5408,12.7177 l 0,-43.2465 z m -573.8346,0.091 0,43.155 c 11.5712,-1.0401 22.1078,-5.6178 30.5103,-12.6567 l -30.5103,-30.4983 z m 583.9335,0 0,43.155 c 11.5712,-1.04 22.1076,-5.6178 30.5103,-12.6567 l -30.5103,-30.4983 z m 85.4894,56.45219 c 35.3368,0 63.9795,28.632 63.9794,63.9549 10e-5,35.323 -28.6425,63.9548 -63.9794,63.9548 -35.3367,-2e-4 -63.9797,-28.6319 -63.9797,-63.9548 0,-35.323 28.6428,-63.9549 63.9797,-63.9549 z m -767.6959,2.3485 c 35.3364,-10e-5 63.9798,28.6318 63.9797,63.9548 1e-4,35.3231 -28.6431,63.9547 -63.9797,63.9547 -35.3371,0 -63.9799,-28.6318 -63.9798,-63.9547 -10e-5,-35.3232 28.6428,-63.9549 63.9798,-63.9548 z m 751.4948,32.7855 c -0.3784,0 -0.7414,0.035 -1.1289,0.062 -0.9632,0.055 -1.9525,0.19 -2.9899,0.3964 -6.5497,1.3344 -11.5351,4.7592 -14.2177,9.973 -0.7409,1.458 -1.5256,3.2956 -2.0441,5.0017 -1.1706,3.8378 -1.4233,8.6654 -0.5494,12.7787 0.3707,1.747 0.8397,3.0978 1.3732,4.6663 1.141,3.4115 3.1477,6.2347 4.8816,9.0274 4.9793,8.0199 13.8914,15.1214 21.9673,20.1289 1.2747,0.7838 9.2751,5.2456 9.275,5.2456 0,-10e-5 7.6411,-4.1935 9.6414,-5.4592 7.1279,-4.5121 14.2214,-11.6308 19.0078,-17.3534 1.4375,-1.7333 2.6235,-3.7648 3.1425,-4.4529 2.5636,-3.4664 4.9707,-9.1759 5.4001,-14.7611 0.2815,-3.5902 0.048,-7.2502 -0.9153,-10.1254 -0.1778,-0.5362 -1.0947,-2.6959 -1.4949,-3.5073 -1.8225,-3.6317 -4.174,-6.5113 -7.5971,-8.4785 -3.0968,-1.7885 -8.5605,-3.5025 -12.7839,-2.8973 -0.3701,0.055 -1.2139,0.1725 -1.5252,0.2135 -1.1116,0.1513 -3.1785,0.7929 -4.3937,1.4944 -1.7334,0.9906 -3.2785,1.9996 -4.7898,3.1413 -0.5186,0.3852 -1.2099,0.8553 -1.9221,1.5555 -0.4155,0.4264 -2.7461,2.8973 -2.7461,2.8973 2e-4,0 -2.464,-2.9771 -2.7155,-3.2938 -0.5037,-0.6604 -3.0769,-2.6754 -3.4474,-3.0193 -0.3115,-0.2751 -1.491,-0.9832 -1.8612,-1.1895 -2.4511,-1.3963 -4.9175,-2.0434 -7.5667,-2.0434 z m -767.6956,2.3484 c -0.3786,0 -0.7419,0.01 -1.1292,0.03 -0.963,0.055 -1.9832,0.2206 -3.0205,0.4268 -6.5497,1.3345 -11.5048,4.7592 -14.1871,9.973 -0.7407,1.4583 -1.5255,3.296 -2.0442,5.0017 -1.1707,3.838 -1.4232,8.6655 -0.549,12.7788 0.3703,1.747 0.8395,3.0978 1.3729,4.6662 1.1409,3.4116 3.1476,6.235 4.8816,9.0275 4.9791,8.02 13.8914,15.1215 21.9673,20.1288 1.2744,0.7842 9.275,5.2457 9.275,5.2457 0,0 7.6409,-4.1935 9.6414,-5.4593 7.1278,-4.5118 14.2213,-11.6611 19.0077,-17.3838 1.4375,-1.7331 2.6237,-3.7344 3.1425,-4.4223 2.564,-3.4665 4.9706,-9.2065 5.4001,-14.7918 0.2819,-3.5904 0.048,-7.2198 -0.9153,-10.0948 -0.1778,-0.5366 -1.0949,-2.6957 -1.4947,-3.5072 -1.823,-3.6318 -4.1739,-6.5115 -7.5973,-8.4786 -3.0969,-1.7882 -8.5601,-3.5026 -12.7834,-2.8973 -0.3705,0.055 -1.2147,0.142 -1.5258,0.183 -1.1115,0.1513 -3.2089,0.8233 -4.4237,1.5249 -1.734,0.9905 -3.2788,1.9995 -4.7901,3.1413 -0.5186,0.3854 -1.1791,0.8248 -1.8918,1.525 -0.415,0.4265 -2.7459,2.9278 -2.7459,2.9278 0,0 -2.4635,-2.9774 -2.7156,-3.2938 -0.5037,-0.6603 -3.0769,-2.6756 -3.4475,-3.0194 -0.311,-0.2751 -1.4905,-0.9831 -1.8611,-1.1896 -2.4508,-1.3961 -4.9175,-2.0434 -7.5663,-2.0432 z m -11.5025,122.0234 c 35.2852,0 63.9797,28.6781 63.9797,63.9547 0,35.2764 -28.6945,63.9548 -63.9797,63.9548 -35.2854,0 -63.9798,-28.6784 -63.9798,-63.9548 0,-35.2766 28.6945,-63.9547 63.9798,-63.9547 z m 825.7872,0 c 35.2856,0 63.9798,28.6782 63.9798,63.9547 0,35.2764 -28.6943,63.9548 -63.9798,63.9548 -35.2852,0 -63.9797,-28.6784 -63.9797,-63.9548 0,-35.2765 28.6946,-63.9547 63.9797,-63.9547 z m -830.8519,8.875 c -28.2396,2.5385 -50.2806,26.175 -50.2806,55.0797 10e-5,13.5722 4.8544,25.977 12.9363,35.5915 l 37.3443,-37.3298 0,-53.3414 z m 10.0988,0 0,53.4328 37.3139,37.2993 c 8.1083,-9.6214 12.9667,-22.0559 12.9667,-35.6524 0,-28.9047 -22.0413,-52.5412 -50.2806,-55.0797 z m 815.719,0 c -28.2397,2.5386 -50.2806,26.175 -50.2806,55.0797 0,13.5722 4.8539,25.9768 12.9363,35.5915 l 37.3443,-37.3298 0,-53.3414 z m 10.0988,0 0,53.4328 37.2832,37.2993 c 8.1079,-9.6213 12.9974,-22.056 12.9974,-35.6524 0,-28.9048 -22.0414,-52.5411 -50.2806,-55.0797 z m -835.9166,66.913 -30.5404,30.5593 c 8.4105,7.0632 18.9455,11.645 30.5404,12.6872 l 0,-43.2465 z m 825.8178,0 -30.5408,30.5593 c 8.4105,7.0632 18.9459,11.6449 30.5408,12.6872 l 0,-43.2465 z m -815.719,0.092 0,43.1549 c 11.5713,-1.0402 22.1079,-5.6177 30.5104,-12.6567 l -30.5104,-30.4982 z m 825.8178,0 0,43.1549 c 11.5712,-1.0402 22.0774,-5.6181 30.4794,-12.6567 l -30.4794,-30.4982 z m -34.4767,82.4672 c 35.3371,-3e-4 63.9798,28.6317 63.9798,63.9547 0,35.323 -28.6428,63.9852 -63.9798,63.9852 -35.3364,0 -63.9793,-28.6623 -63.9793,-63.9852 0,-35.323 28.6427,-63.9547 63.9793,-63.9547 z m -767.6955,2.3483 c 35.3365,-10e-5 63.9798,28.632 63.9797,63.9547 1e-4,35.3234 -28.6432,63.9548 -63.9797,63.9548 -35.3374,0 -63.9798,-28.6317 -63.9798,-63.9548 0,-35.3226 28.6427,-63.9549 63.9798,-63.9547 z m 751.4947,32.8161 c -0.3784,0 -0.7417,0 -1.1288,0.03 -0.9633,0.056 -1.983,0.2208 -3.0205,0.4271 -6.5496,1.3342 -11.5046,4.7593 -14.1872,9.9729 -0.7409,1.4584 -1.5259,3.2653 -2.0441,4.971 -1.1707,3.8384 -1.4237,8.6962 -0.5493,12.8093 0.3706,1.7473 0.8396,3.0978 1.3731,4.6664 1.1411,3.4115 3.148,6.2348 4.8817,9.0274 4.9792,8.0199 13.891,15.1216 21.9673,20.1288 1.2745,0.7841 9.2445,5.2151 9.2445,5.2151 0,3e-4 7.6708,-4.1934 9.6714,-5.459 7.1283,-4.512 14.2217,-11.6307 19.0079,-17.3537 1.4378,-1.733 2.6241,-3.7341 3.1429,-4.4221 2.5635,-3.4665 4.9706,-9.2066 5.4001,-14.7916 0.2814,-3.5906 0.048,-7.2198 -0.9154,-10.0949 -0.1778,-0.5365 -1.0947,-2.6956 -1.4948,-3.5075 -1.8226,-3.6314 -4.1742,-6.5417 -7.5971,-8.5088 -3.0972,-1.7885 -8.5605,-3.5028 -12.7839,-2.8973 -0.3702,0.055 -1.2143,0.1725 -1.5252,0.2134 -1.1117,0.1512 -3.209,0.7926 -4.4243,1.4945 -1.7335,0.9903 -3.2783,2.0297 -4.7898,3.1718 -0.5184,0.3849 -1.1793,0.8248 -1.8916,1.5248 -0.4154,0.4267 -2.7461,2.9281 -2.7461,2.9279 2e-4,0 -2.4639,-2.977 -2.7154,-3.2938 -0.5036,-0.6601 -3.077,-2.6754 -3.4475,-3.0193 -0.3116,-0.2751 -1.491,-0.9832 -1.8612,-1.1894 -2.451,-1.3965 -4.9176,-2.0435 -7.5667,-2.0434 z m -767.6956,2.3483 c -0.3785,3e-4 -0.7725,0.01 -1.1597,0.03 -0.9634,0.055 -1.9524,0.1901 -2.99,0.3966 -6.5495,1.334 -11.5048,4.7591 -14.1871,9.9728 -0.7408,1.4584 -1.5256,3.2961 -2.0442,5.0017 -1.1707,3.8382 -1.4233,8.696 -0.549,12.8093 0.3702,1.7469 0.8394,3.0978 1.3729,4.6663 1.1407,3.4113 3.1476,6.2346 4.8817,9.0274 4.9788,8.0197 13.8912,15.0911 21.9673,20.0983 1.2741,0.7842 9.2444,5.2457 9.2444,5.2457 0,0 7.6715,-4.1936 9.6719,-5.4591 7.1277,-4.5125 14.2214,-11.6308 19.0078,-17.3536 1.4376,-1.733 2.6237,-3.7342 3.1424,-4.4223 2.5641,-3.4662 4.9706,-9.2063 5.4002,-14.7915 0.2818,-3.5903 0.048,-7.2201 -0.9154,-10.0951 -0.1777,-0.5362 -1.0949,-2.6955 -1.4947,-3.5071 -1.8228,-3.6317 -4.1738,-6.5421 -7.5972,-8.509 -3.0971,-1.7886 -8.5907,-3.5027 -12.814,-2.8974 -0.3706,0.055 -1.1842,0.1724 -1.4952,0.2136 -1.1115,0.1509 -3.2088,0.7925 -4.4238,1.4943 -1.7339,0.9904 -3.279,1.9992 -4.7901,3.1414 -0.5192,0.3854 -1.179,0.855 -1.8918,1.5554 -0.4146,0.4262 -2.7459,2.9278 -2.7459,2.9278 0,0 -2.4637,-2.9772 -2.7155,-3.2938 -0.5036,-0.6603 -3.077,-2.6756 -3.4476,-3.0193 -0.3109,-0.2754 -1.4905,-1.0139 -1.8611,-1.2199 -2.4509,-1.3968 -4.9174,-2.013 -7.5663,-2.013 z m 108.4634,95.9779 c 35.2837,0 63.9797,28.6782 63.9797,63.9547 0,35.2783 -28.6946,63.9854 -63.9797,63.9854 -35.2839,0 -63.9798,-28.709 -63.9798,-63.9854 0,-35.278 28.6943,-63.9549 63.9798,-63.9547 z m 583.9028,0 c 35.2839,0 64.0103,28.6783 64.0103,63.9547 0,35.2781 -28.7248,63.9854 -64.0103,63.9854 -35.2833,0 -63.9797,-28.709 -63.9797,-63.9854 0,-35.2782 28.6946,-63.9547 63.9797,-63.9547 z m -588.9676,8.8751 c -28.2395,2.5383 -50.2805,26.1751 -50.2805,55.0796 2e-4,13.5725 4.8543,26.0078 12.9363,35.622 l 37.3442,-37.3603 0,-53.3413 z m 10.0989,0 0,53.4633 37.3138,37.2688 c 8.1081,-9.6216 12.9668,-22.056 12.9668,-35.6525 0,-28.9046 -22.0413,-52.5411 -50.2806,-55.0796 z m 573.8346,0 c -28.2395,2.5383 -50.2806,26.1749 -50.2806,55.0796 0,13.5724 4.854,26.0077 12.9363,35.622 l 37.3443,-37.3603 0,-53.3413 z m 10.0989,0 0,53.4633 37.3137,37.2688 c 8.1078,-9.6214 12.9668,-22.056 12.9668,-35.6525 -2e-4,-28.9047 -22.0414,-52.5411 -50.2805,-55.0796 z m -594.0324,66.9435 -30.5407,30.5288 c 8.4109,7.0632 18.946,11.6755 30.5407,12.7177 l 0,-43.2465 z m 583.9335,0 -30.5408,30.5288 c 8.4106,7.0632 18.9459,11.6755 30.5408,12.7177 l 0,-43.2465 z m -573.8346,0.092 0,43.1551 c 11.5714,-1.0404 22.108,-5.6179 30.5103,-12.6568 l -30.5103,-30.4983 z m 583.9335,0 0,43.1551 c 11.571,-1.0402 22.1076,-5.6176 30.5103,-12.6568 l -30.5103,-30.4983 z m -137.6924,16.0726 c 35.337,-1e-4 63.9798,28.6321 63.9798,63.9548 -2e-4,35.3231 -28.6428,63.9548 -63.9798,63.9548 -35.3366,0 -63.9796,-28.6318 -63.9798,-63.9548 2e-4,-35.3228 28.6432,-63.9549 63.9798,-63.9548 z m -318.0071,0.9455 c 35.3372,0 63.9797,28.6621 63.9797,63.9852 0,35.3233 -28.6425,63.9548 -63.9797,63.9548 -35.3367,0 -63.9798,-28.6318 -63.9798,-63.9548 0,-35.3231 28.6432,-63.9852 63.9798,-63.9852 z m 158.6833,27.9664 c 35.2854,0 63.9797,28.6784 63.9797,63.9547 2e-4,35.2765 -28.6943,63.9853 -63.9797,63.9853 -35.2853,-2e-4 -63.9797,-28.709 -63.9797,-63.9853 0,-35.2763 28.6944,-63.9547 63.9797,-63.9547 z m 143.123,6.2216 c -0.3785,0 -0.7722,0.01 -1.1594,0.03 -0.9633,0.056 -1.9527,0.2206 -2.9899,0.427 -6.5501,1.3341 -11.5356,4.7593 -14.2177,9.9729 -0.741,1.4583 -1.4953,3.2958 -2.0136,5.0017 -1.1708,3.8381 -1.4542,8.6658 -0.5799,12.7787 0.3707,1.7473 0.8397,3.0979 1.3731,4.6663 1.1411,3.4116 3.1478,6.2349 4.8813,9.0275 4.9791,8.02 13.9218,15.1214 21.9979,20.1288 1.2749,0.784 9.2448,5.2457 9.2448,5.2457 2e-4,0 7.671,-4.1935 9.6715,-5.4592 7.1278,-4.5123 14.2218,-11.6613 19.0077,-17.384 1.4381,-1.733 2.5937,-3.7341 3.1121,-4.4222 2.5639,-3.4665 4.9706,-9.2067 5.4005,-14.7916 0.2815,-3.5908 0.078,-7.2197 -0.8848,-10.095 -0.1779,-0.5364 -1.095,-2.6955 -1.4952,-3.5073 -1.8225,-3.6316 -4.2044,-6.5115 -7.6273,-8.4784 -3.0971,-1.7888 -8.5605,-3.5028 -12.7839,-2.8974 -0.3702,0.055 -1.1836,0.142 -1.4947,0.183 -1.1119,0.1513 -3.2094,0.8233 -4.4242,1.5249 -1.7338,0.9905 -3.2786,1.9993 -4.7902,3.1414 -0.5184,0.385 -1.1789,0.8247 -1.8917,1.5248 -0.4149,0.4267 -2.7456,2.928 -2.7456,2.9278 0,0 -2.4641,-2.9769 -2.7156,-3.2938 -0.5039,-0.66 -3.0768,-2.6753 -3.4474,-3.0193 -0.3113,-0.275 -1.5214,-0.9831 -1.8916,-1.1894 -2.451,-1.3964 -4.8869,-2.0435 -7.5362,-2.0434 z m -318.0071,0.9759 c -0.3783,0 -0.7417,0.01 -1.1288,0.03 -0.9633,0.056 -1.9526,0.2207 -2.9901,0.4271 -6.5496,1.334 -11.5354,4.7591 -14.2175,9.9728 -0.7413,1.4583 -1.5258,3.296 -2.0442,5.0018 -1.1707,3.838 -1.4236,8.6654 -0.5494,12.7787 0.3707,1.7472 0.8397,3.0979 1.3733,4.6662 1.1406,3.4116 3.1475,6.235 4.8812,9.0275 4.9789,8.02 13.891,15.1214 21.9673,20.1288 1.2745,0.7841 9.2754,5.2457 9.2754,5.2457 0,0 7.6405,-4.2241 9.641,-5.4897 7.1277,-4.5121 14.2216,-11.6308 19.0077,-17.3535 1.4377,-1.7328 2.6241,-3.7343 3.1425,-4.4222 2.5641,-3.4666 4.9706,-9.2065 5.4005,-14.7916 0.2815,-3.5908 0.048,-7.2198 -0.9153,-10.0949 -0.1778,-0.5365 -1.0949,-2.6958 -1.4951,-3.5074 -1.8226,-3.6315 -4.1738,-6.5417 -7.5969,-8.5089 -3.0969,-1.7882 -8.5605,-3.5028 -12.7838,-2.8973 -0.3705,0.055 -1.2143,0.1724 -1.5254,0.2134 -1.1119,0.1513 -3.1786,0.8232 -4.3937,1.5249 -1.7339,0.9905 -3.2783,1.9993 -4.7901,3.1414 -0.5182,0.3848 -1.2106,0.8232 -1.9222,1.5248 -0.4146,0.4267 -2.7455,2.928 -2.7455,2.9278 -2e-4,0 -2.4639,-2.9773 -2.7156,-3.2938 -0.5041,-0.6603 -3.0769,-2.6753 -3.4475,-3.0192 -0.3113,-0.2752 -1.4909,-0.9832 -1.8611,-1.1894 -2.4509,-1.3966 -4.9173,-2.0434 -7.5667,-2.0434 z m 169.85,1.6775 c -28.2399,2.5384 -50.3111,26.1751 -50.3111,55.0797 0,13.5724 4.8848,26.0077 12.9668,35.6219 l 37.3443,-37.3603 0,-53.3413 z m 10.0682,0 0,53.4329 37.3138,37.2993 c 8.1078,-9.6216 12.9973,-22.0559 12.9973,-35.6525 0,-28.9045 -22.0718,-52.5411 -50.3111,-55.0797 z m -10.0682,66.9435 -30.5714,30.5288 c 8.4111,7.0632 18.9764,11.6754 30.5714,12.7177 l 0,-43.2465 z m 10.0682,0.061 0,43.1854 c 11.5717,-1.0401 22.1079,-5.6179 30.5103,-12.6568 l -30.5103,-30.5286 z"
       id="path3302-1"
       inkscape:connector-curvature="0" />
    <path
       inkscape:connector-curvature="0"
       id="path4289-8-2"
       d="m 2696.4393,1754.3829 c 278.563,200.789 667.1545,137.7407 867.9435,-140.8222 200.7891,-278.563 137.7408,-667.15451 -140.8221,-867.94353 -278.5629,-200.78897 -667.1545,-137.74073 -867.9435,140.82223 -200.789,278.5629 -137.7408,667.1545 140.8221,867.9435 z"
       style="fill:none;stroke:none;display:inline" />
    <path
       sodipodi:type="arc"
       style="fill:none;stroke:none"
       id="path3893"
       sodipodi:cx="2207.5874"
       sodipodi:cy="1474.6952"
       sodipodi:rx="694.37885"
       sodipodi:ry="694.37885"
       d="m 2901.9662,1474.6952 a 694.37885,694.37885 0 1 1 -1388.7576,0 694.37885,694.37885 0 1 1 1388.7576,0 z"
       transform="matrix(-0.56038477,-0.71395837,0.71395837,-0.56038477,2184.2275,3652.5223)" />
    <path
       sodipodi:type="arc"
       style="fill:none;stroke:none;display:inline"
       id="path3893-2"
       sodipodi:cx="2207.5874"
       sodipodi:cy="1474.6952"
       sodipodi:rx="694.37885"
       sodipodi:ry="694.37885"
       d="m 2901.9662,1474.6952 a 694.37885,694.37885 0 1 1 -1388.7576,0 694.37885,694.37885 0 1 1 1388.7576,0 z"
       transform="matrix(-0.53059272,0.92664577,0.92664577,0.53059272,1804.8096,-1578.1141)" />
    <path
       sodipodi:type="arc"
       style="fill:none;stroke:#1481b8;stroke-width:13.3357048;stroke-miterlimit:4.19999981;stroke-opacity:1;stroke-dasharray:none"
       id="path4197"
       sodipodi:cx="2554.6875"
       sodipodi:cy="1632.8125"
       sodipodi:rx="701.5625"
       sodipodi:ry="701.5625"
       d="m 3256.25,1632.8125 a 701.5625,701.5625 0 1 1 -1403.125,0 701.5625,701.5625 0 1 1 1403.125,0 z"
       transform="matrix(0.77658349,0,0,0.77658349,-1217.7601,-2065.1785)" />
    <g
       style="fill:#4d4d4d;fill-opacity:1"
       id="g2809"
       transform="matrix(0.55789384,0,0,0.55789384,-775.5604,386.62846)">
      <path
         style="fill:#4d4d4d;fill-opacity:1;fill-rule:evenodd;stroke:none"
         id="path2284"
         d="m 339.96875,309.09375 c -14.47141,-0.0239 -26.4812,2.94367 -31.125,4.5625 l -4.78125,25.8125 c -0.0116,0.0951 23.79543,-6.34855 34.28125,-5.96875 17.36158,0.62381 18.95948,6.63541 18.65625,14.75 0.29595,0.47462 -4.47933,-7.33192 -19.5,-7.59375 -18.94961,-0.32687 -45.69284,6.70947 -45.65625,35.3125 -0.51086,32.17412 24.03361,41.63882 40.75,41.8125 15.02821,-0.27364 22.0777,-5.69136 25.9375,-8.59375 5.07124,-5.30236 10.87308,-10.63447 16.40625,-17.03125 -5.23567,9.51278 -9.77472,16.0898 -14.5,21.125 l 0,4.25 22.84375,-3.84375 0.15625,-62.09375 c -0.23141,-8.78839 5.04123,-42.41827 -43.46875,-42.5 z m -3.28125,54.0625 c 9.46889,0.12995 20.32788,4.79708 20.34375,16.03125 0.049,10.21821 -12.80005,15.71183 -21.15625,15.625 -8.35976,-0.0868 -19.45093,-6.56982 -19.5,-16.53125 0.16016,-8.90444 10.45953,-15.35418 20.3125,-15.125 z"
         inkscape:connector-curvature="0" />
      <path
         style="fill:#4d4d4d;fill-opacity:1;fill-rule:evenodd;stroke:none"
         id="path2286"
         d="m 398.50106,314.83145 -0.15505,102.82693 26.61213,-5.12724 0.0449,-58.30157 c 0.006,-8.68089 12.40554,-18.82451 27.9627,-18.66287 3.30202,-5.97408 9.5087,-21.24219 11.02088,-24.71514 -34.75649,-0.0833 -35.19897,9.98993 -41.24398,14.94517 -0.0631,-9.45285 -0.0213,-15.12741 -0.0213,-15.12741 l -24.2202,4.16213 z"
         inkscape:connector-curvature="0" />
      <path
         style="fill:#4d4d4d;fill-opacity:1;fill-rule:evenodd;stroke:none"
         id="path2288"
         d="m 548.2688,328.33058 c -0.25696,-0.12068 -13.87938,-15.93419 -41.26638,-16.0589 -25.65249,-0.42638 -54.42578,9.51895 -54.88631,52.5328 0.22457,37.81852 27.6402,52.59809 55.0314,52.88627 29.31292,0.30451 40.97654,-18.32947 41.67615,-18.79124 -3.49762,-3.0321 -16.59792,-16.0131 -16.59792,-16.0131 0,0 -8.18236,11.65102 -24.05802,11.79913 -15.87942,0.1512 -29.68245,-12.27325 -29.87805,-29.60905 -0.20349,-17.33595 12.68881,-26.72821 29.99725,-27.48687 14.98466,-0.003 23.6297,9.67334 23.6297,9.67334 l 16.35218,-18.93238 z"
         inkscape:connector-curvature="0" />
      <path
         style="fill:#4d4d4d;fill-opacity:1;fill-rule:evenodd;stroke:none"
         id="path2290"
         d="m 581.8125,278.84375 -25.125,5.90625 0.1875,133.9375 24.75,-4.46875 0.28125,-63.03125 c 0.0529,-6.60927 9.56127,-16.75916 25.4375,-16.4375 15.17973,0.15775 18.57236,10.11767 18.53125,11.375 l 0.4375,72.96875 24.40625,-4.3125 0.0937,-77.375 c 0.1607,-7.44539 -16.30833,-23.16954 -42.78125,-23.28125 -12.58087,0.0202 -19.54815,2.86825 -23.09375,4.96875 -6.06656,4.68565 -12.9998,9.17543 -19.8125,14.90625 6.29809,-8.09099 11.58551,-13.68516 16.75,-17.84375 l -0.0625,-37.3125 z"
         inkscape:connector-curvature="0" />
    </g>
    <g
       style="fill:#1793d1;fill-opacity:1;stroke:none"
       id="g5326"
       transform="matrix(0.82595102,0,0.01168815,0.82595102,-738.9489,23.95191)">
      <path
         style="fill:#1793d1;fill-opacity:1;fill-rule:evenodd;stroke:none"
         id="path2292"
         d="m 400.67581,629.79609 7.68167,-1.91575 -0.92851,91.20792 -7.79574,1.32426 1.04258,-90.61643 z"
         inkscape:connector-curvature="0" />
      <path
         style="fill:#1793d1;fill-opacity:1;fill-rule:evenodd;stroke:none"
         id="path2294"
         d="m 421.10266,657.01757 6.75064,-2.9867 -0.86808,65.39931 -6.49779,1.33915 0.61523,-63.75176 z m -1.26059,-23.58316 5.47167,-4.41533 4.42261,4.99952 -5.47558,4.53221 -4.4187,-5.1164 z"
         inkscape:connector-curvature="0" />
      <path
         style="fill:#1793d1;fill-opacity:1;fill-rule:evenodd;stroke:none"
         id="path2296"
         d="m 440.44273,655.82614 7.67755,-1.56201 -0.1573,13.6722 c -0.007,0.58717 4.4194,-15.27364 24.68502,-14.92094 19.67986,0.10952 22.68401,15.34634 22.5291,18.76237 l -0.43759,48.0783 -6.73044,1.45631 0.63316,-47.489 c 0.0974,-1.38684 -2.88144,-13.11441 -16.78906,-13.15754 -13.90509,-0.0404 -23.68364,10.10048 -23.75821,16.57937 l -0.48127,41.83477 -7.80388,2.0313 0.63292,-65.28513 z"
         inkscape:connector-curvature="0" />
      <path
         style="fill:#1793d1;fill-opacity:1;fill-rule:evenodd;stroke:none"
         id="path2298"
         d="m 561.53301,720.20203 -7.6776,1.56186 0.15737,-13.67198 c 0.007,-0.58742 -4.42201,15.27361 -24.68504,14.92086 -19.67983,-0.10944 -22.68399,-15.34626 -22.52908,-18.76229 l 0.43757,-48.07861 8.15674,-1.64226 -0.54644,47.48988 c -0.0149,1.29682 1.36845,13.29979 15.27604,13.3426 13.90511,0.0405 23.76622,-8.37359 24.01453,-21.04416 l 0.43105,-37.46902 7.5978,-1.93195 -0.63294,65.28507 z"
         inkscape:connector-curvature="0" />
      <path
         style="fill:#1793d1;fill-opacity:1;fill-rule:evenodd;stroke:none"
         id="path2300"
         d="m 577.45461,655.28678 -5.42715,4.20017 20.19894,26.93328 -22.39092,31.11622 5.63499,4.226 21.04365,-28.8967 20.8779,29.58159 5.32727,-4.20103 -22.37578,-31.62866 18.56963,-25.5775 -5.53193,-4.73429 -16.92109,23.66778 -19.00551,-24.68686 z"
         inkscape:connector-curvature="0" />
    </g>
    <g
       transform="matrix(0.8746356,0,0,0.8746356,-807.4728,384.72929)"
       style="font-size:8.44138241px;font-style:normal;font-weight:normal;fill:#1793d1;fill-opacity:1;stroke:none;font-family:DejaVu Sans Mono"
       id="text2634">
      <path
         style="fill:#1793d1;fill-opacity:1"
         id="path3945"
         d="m 685.46692,263.83624 0,-5.32944 -1.99082,0 0,-0.71307 4.7895,0 0,0.71307 -1.99906,0 0,5.32944 -0.79962,0"
         inkscape:connector-curvature="0" />
      <path
         style="fill:#1793d1;fill-opacity:1"
         id="path3947"
         d="m 689.0982,263.83624 0,-6.04251 1.20355,0 1.43026,4.2784 c 0.13189,0.39843 0.22806,0.69658 0.28852,0.89442 0.0687,-0.21983 0.17586,-0.5427 0.3215,-0.96862 l 1.44674,-4.2042 1.07578,0 0,6.04251 -0.77077,0 0,-5.05741 -1.75587,5.05741 -0.72131,0 -1.74763,-5.14396 0,5.14396 -0.77077,0"
         inkscape:connector-curvature="0" />
    </g>
    <g
       transform="matrix(0.8746356,0,0,0.8746356,-807.4728,384.72929)"
       style="font-size:8.25130367px;font-style:normal;font-weight:normal;fill:#1793d1;fill-opacity:1;stroke:none;font-family:DejaVu Sans Mono"
       id="text2638">
      <path
         style="fill:#1793d1;fill-opacity:1"
         id="path3940"
         d="m 239.84053,313.69965 0,-5.20945 -1.94598,0 0,-0.697 4.68164,0 0,0.697 -1.95404,0 0,5.20945 -0.78162,0"
         inkscape:connector-curvature="0" />
      <path
         style="fill:#1793d1;fill-opacity:1"
         id="path3942"
         d="m 243.39004,313.69965 0,-5.90645 1.17646,0 1.39805,4.18205 c 0.12892,0.38947 0.22293,0.6809 0.28202,0.87429 0.0671,-0.21488 0.1719,-0.53048 0.31426,-0.94681 l 1.41417,-4.10953 1.05155,0 0,5.90645 -0.75341,0 0,-4.94353 -1.71634,4.94353 -0.70506,0 -1.70828,-5.02814 0,5.02814 -0.75342,0"
         inkscape:connector-curvature="0" />
    </g>
    <g
       id="g4351"
       transform="translate(0,-2)">
      <path
         sodipodi:nodetypes="cccccccccccc"
         inkscape:connector-curvature="0"
         d="m 1999.9511,942.5032 c -80.364,195.9906 -129.1096,325.7674 -262.7745,505.7573 0,0 0,0 -0.01,20.0048 83.3234,-48.1039 147.9143,-77.7607 208.1098,-89.0769 l 0,-19.997 c -8.2788,-42.1914 19.5491,-110.01 54.6781,-110.01 34.4433,0 65.0431,67.8186 57.2405,110.4044 l 0,19.9981 c 59.5422,11.6473 123.4425,41.2282 205.6383,88.6814 0,-19.9972 0,-19.9972 0,-19.9972 -127.3415,-202.0683 -136.8857,-209.5643 -262.8761,-505.7649 z"
         id="path2518-0-4"
         style="fill:#1481b8;fill-opacity:1;fill-rule:evenodd;stroke:none;display:inline" />
      <path
         inkscape:connector-curvature="0"
         d="m 1999.9511,922.5032 c -23.4014,57.3739 -37.5156,94.9029 -63.5701,150.5711 15.9746,16.9328 35.5827,36.652 67.4257,58.9234 -34.2344,-14.0875 -57.5867,-28.2307 -75.0382,-42.9074 -33.3444,69.5783 -85.5854,168.6892 -191.5995,359.175 83.3234,-48.1039 147.9143,-77.7607 208.1098,-89.0769 -2.5847,-11.1173 -4.0543,-23.1429 -3.9545,-35.6902 l 0.099,-2.6692 c 1.322,-53.3831 29.0921,-94.4349 61.9878,-91.6476 32.8961,2.7874 58.4662,48.3485 57.1438,101.7318 -0.25,10.0449 -1.3815,19.7079 -3.3614,28.6707 59.5422,11.6473 123.4425,41.2282 205.6383,88.6814 -16.2073,-29.8391 -30.6739,-56.7369 -44.489,-82.3541 -21.7607,-16.8661 -44.4584,-38.8177 -90.7577,-62.5815 31.8234,8.2692 54.6083,17.8094 72.3689,28.4731 -140.4613,-261.5145 -151.8355,-296.2644 -200.003,-409.2996 z"
         id="path2518"
         style="fill:#1aa5eb;fill-opacity:1;fill-rule:evenodd;stroke:none" />
    </g>
    <rect
       style="fill:#ffe680;fill-opacity:1;stroke:none"
       id="rect4637-7"
       width="250"
       height="800"
       x="-1200"
       y="820" />
    <rect
       style="fill:#ff8080;fill-opacity:1;stroke:none"
       id="rect4637-7-5"
       width="250"
       height="800"
       x="-1490"
       y="820" />
    <rect
       style="fill:#e5ff80;fill-opacity:1;stroke:none"
       id="rect4637-18"
       width="250"
       height="800"
       x="-920"
       y="820" />
    <rect
       style="fill:#87decd;fill-opacity:1;stroke:none"
       id="rect4637-18-9"
       width="250"
       height="800"
       x="-640"
       y="820" />
  </g>
  <g
     inkscape:groupmode="layer"
     id="layer1"
     inkscape:label="text"
     style="display:inline">
    <text
       xml:space="preserve"
       style="font-size:180.33306885px;font-style:normal;font-weight:normal;line-height:125%;letter-spacing:0px;word-spacing:0px;fill:#1793d1;fill-opacity:1;stroke:none;display:inline;font-family:Sans"
       id="text4381"
       sodipodi:linespacing="125%"><textPath
         xlink:href="#path3893"
         id="textPath3896"
         style="letter-spacing:5px"><tspan
   style="font-style:normal;font-variant:normal;font-weight:normal;font-stretch:normal;letter-spacing:5px;fill:#1793d1;fill-opacity:1;font-family:ABeeZee;-inkscape-font-specification:ABeeZee"
   id="tspan4383"
   dx="0 0 0 0 0 -7.7800031">MAKEPKG</tspan></textPath></text>
    <text
       xml:space="preserve"
       style="font-size:158.51997375px;font-style:normal;font-variant:normal;font-weight:normal;font-stretch:normal;text-align:start;line-height:125%;letter-spacing:0px;word-spacing:0px;writing-mode:lr-tb;text-anchor:start;fill:#1793d1;fill-opacity:1;stroke:none;display:inline;font-family:Source Sans Pro;-inkscape-font-specification:Source Sans Pro"
       id="text4388"
       sodipodi:linespacing="125%"><textPath
         xlink:href="#path3893-2"
         id="textPath3922"><tspan
   style="font-size:158.51997375px;font-style:normal;font-variant:normal;font-weight:normal;font-stretch:normal;letter-spacing:5px;fill:#1793d1;fill-opacity:1;font-family:ABeeZee;-inkscape-font-specification:ABeeZee"
   id="tspan4390"
   dx="0 8 6 0 0 1 2.5"
   dy="0 0 -7.6000023">NOT WAR</tspan></textPath></text>
    <path
       style="font-size:medium;font-style:normal;font-variant:normal;font-weight:normal;font-stretch:normal;text-indent:0;text-align:start;text-decoration:none;line-height:normal;letter-spacing:normal;word-spacing:normal;text-transform:none;direction:ltr;block-progression:tb;writing-mode:lr-tb;text-anchor:start;baseline-shift:baseline;color:#000000;fill:#1481b8;fill-opacity:1;stroke:none;stroke-width:10.31099987;marker:none;visibility:visible;display:inline;overflow:visible;enable-background:accumulate;font-family:Sans;-inkscape-font-specification:Sans"
       d="m 1543.3125,735.40625 c -141.9199,126.0472 -231.375,309.89525 -231.375,514.59375 0,237.8396 120.7589,447.5157 304.2813,571.0938 1.4226,-3.0412 2.8514,-6.0613 4.3437,-9.0626 C 1440.3765,1690.17 1321.9374,1483.9455 1321.9375,1250 c 0,-200.5364 87.0364,-380.71618 225.375,-504.84375 -1.3695,-3.23046 -2.698,-6.48461 -4,-9.75 z m 913.375,0 c -1.302,3.26539 -2.6305,6.51954 -4,9.75 138.3339,124.12733 225.3437,304.31125 225.3437,504.84375 0,233.9451 -118.4175,440.17 -298.5937,562.0312 1.4923,3.0013 2.9211,6.0214 4.3437,9.0626 183.5132,-123.5781 304.2501,-333.2542 304.25,-571.0938 0,-204.6901 -89.4339,-388.54698 -231.3437,-514.59375 z"
       id="path4055"
       inkscape:connector-curvature="0" />
    <text
       transform="translate(4.3329071e-5,12.000042)"
       xml:space="preserve"
       style="font-size:180.33306885px;font-style:normal;font-weight:normal;line-height:125%;letter-spacing:0px;word-spacing:0px;fill:#1793d1;fill-opacity:0.5;stroke:none;display:inline;font-family:Sans"
       id="text4381-1"
       sodipodi:linespacing="125%"><textPath
         xlink:href="#path3893-4"
         id="textPath3896-6"
         style="letter-spacing:5px;fill:#1793d1;fill-opacity:0.5"><tspan
   style="font-style:normal;font-variant:normal;font-weight:normal;font-stretch:normal;letter-spacing:5px;fill:#1793d1;fill-opacity:0.5;font-family:ABeeZee;-inkscape-font-specification:ABeeZee"
   id="tspan4383-4"
   dx="0 0 0 0 0 -7.7800031">MAKEPKG</tspan></textPath></text>
    <text
       transform="translate(1.588276e-5,9.999998)"
       xml:space="preserve"
       style="font-size:158.51997375px;font-style:normal;font-variant:normal;font-weight:normal;font-stretch:normal;text-align:start;line-height:125%;letter-spacing:0px;word-spacing:0px;writing-mode:lr-tb;text-anchor:start;fill:#1793d1;fill-opacity:0.47999998;stroke:none;display:inline;font-family:Source Sans Pro;-inkscape-font-specification:Source Sans Pro"
       id="text4388-9"
       sodipodi:linespacing="125%"><textPath
         xlink:href="#path3893-2-3"
         id="textPath3922-7"><tspan
   style="font-size:158.51997375px;font-style:normal;font-variant:normal;font-weight:normal;font-stretch:normal;letter-spacing:5px;fill:#1793d1;fill-opacity:0.47999998;font-family:ABeeZee;-inkscape-font-specification:ABeeZee"
   id="tspan4390-0"
   dx="0 8 6 0 0 1 2.5"
   dy="0 0 -7.6000023">NOT WAR</tspan></textPath></text>
  </g>
</svg>
