<?xml version="1.0" encoding="UTF-8" standalone="no"?>
<!-- Created with Inkscape (http://www.inkscape.org/) -->

<svg
   xmlns:dc="http://purl.org/dc/elements/1.1/"
   xmlns:cc="http://creativecommons.org/ns#"
   xmlns:rdf="http://www.w3.org/1999/02/22-rdf-syntax-ns#"
   xmlns:svg="http://www.w3.org/2000/svg"
   xmlns="http://www.w3.org/2000/svg"
   xmlns:sodipodi="http://sodipodi.sourceforge.net/DTD/sodipodi-0.dtd"
   xmlns:inkscape="http://www.inkscape.org/namespaces/inkscape"
   width="4000"
   height="2500"
   id="svg3059"
   version="1.1"
   inkscape:version="0.48.5 r10040"
   sodipodi:docname="makepkg not war - rainbow.svg"
   inkscape:export-filename="/run/media/scosh/Media WD/New Drive/2D Graphics/Inkscape/makepkg not war - wallpaper series/makepkg_not_war_archbow_no-text.png"
   inkscape:export-xdpi="90"
   inkscape:export-ydpi="90">
  <defs
     id="defs3061">
    <path
       sodipodi:type="arc"
       style="fill:none;stroke:none;display:inline"
       id="path4289-8"
       sodipodi:cx="2113.2178"
       sodipodi:cy="1232.0693"
       sodipodi:rx="513.77118"
       sodipodi:ry="513.77118"
       d="m 2626.989,1232.0693 a 513.77118,513.77118 0 1 1 -1027.5424,0 513.77118,513.77118 0 1 1 1027.5424,0 z"
       transform="matrix(-0.72494228,1.0057426,1.0057426,0.72494228,2292.8163,-1768.5324)" />
    <path
       sodipodi:type="arc"
       style="fill:none;stroke:none"
       id="path4289"
       sodipodi:cx="2113.2178"
       sodipodi:cy="1232.0693"
       sodipodi:rx="513.77118"
       sodipodi:ry="513.77118"
       d="m 2626.989,1232.0693 a 513.77118,513.77118 0 1 1 -1027.5424,0 513.77118,513.77118 0 1 1 1027.5424,0 z"
       transform="matrix(-0.70197014,-0.68884752,0.68884752,-0.70197014,2634.7078,3570.5608)" />
    <path
       sodipodi:type="arc"
       style="fill:none;stroke:none"
       id="path4289-82"
       sodipodi:cx="2113.2178"
       sodipodi:cy="1232.0693"
       sodipodi:rx="513.77118"
       sodipodi:ry="513.77118"
       d="m 2626.989,1232.0693 a 513.77118,513.77118 0 1 1 -1027.5424,0 513.77118,513.77118 0 1 1 1027.5424,0 z"
       transform="matrix(-0.70197014,-0.68884752,0.68884752,-0.70197014,2634.7078,3570.5608)" />
    <path
       sodipodi:type="arc"
       style="fill:none;stroke:none;display:inline"
       id="path4289-8-5"
       sodipodi:cx="2113.2178"
       sodipodi:cy="1232.0693"
       sodipodi:rx="513.77118"
       sodipodi:ry="513.77118"
       d="m 2626.989,1232.0693 a 513.77118,513.77118 0 1 1 -1027.5424,0 513.77118,513.77118 0 1 1 1027.5424,0 z"
       transform="matrix(-0.72494228,1.0057426,1.0057426,0.72494228,2292.8163,-1768.5324)" />
    <path
       sodipodi:type="arc"
       style="fill:none;stroke:none;display:inline"
       id="path4289-8-6"
       sodipodi:cx="2113.2178"
       sodipodi:cy="1232.0693"
       sodipodi:rx="513.77118"
       sodipodi:ry="513.77118"
       d="m 2626.989,1232.0693 a 513.77118,513.77118 0 1 1 -1027.5424,0 513.77118,513.77118 0 1 1 1027.5424,0 z"
       transform="matrix(-0.72494228,1.0057426,1.0057426,0.72494228,2292.8163,-1768.5324)" />
    <path
       sodipodi:type="arc"
       style="fill:none;stroke:none;display:inline"
       id="path4289-8-5-2"
       sodipodi:cx="2113.2178"
       sodipodi:cy="1232.0693"
       sodipodi:rx="513.77118"
       sodipodi:ry="513.77118"
       d="m 2626.989,1232.0693 a 513.77118,513.77118 0 1 1 -1027.5424,0 513.77118,513.77118 0 1 1 1027.5424,0 z"
       transform="matrix(-0.72494228,1.0057426,1.0057426,0.72494228,2292.8163,-1768.5324)" />
    <path
       sodipodi:type="arc"
       style="fill:none;stroke:none"
       id="path4289-1"
       sodipodi:cx="2113.2178"
       sodipodi:cy="1232.0693"
       sodipodi:rx="513.77118"
       sodipodi:ry="513.77118"
       d="m 2626.989,1232.0693 a 513.77118,513.77118 0 1 1 -1027.5424,0 513.77118,513.77118 0 1 1 1027.5424,0 z"
       transform="matrix(-0.70197014,-0.68884752,0.68884752,-0.70197014,2634.7078,3570.5608)" />
    <path
       sodipodi:type="arc"
       style="fill:none;stroke:none"
       id="path4289-82-2"
       sodipodi:cx="2113.2178"
       sodipodi:cy="1232.0693"
       sodipodi:rx="513.77118"
       sodipodi:ry="513.77118"
       d="m 2626.989,1232.0693 a 513.77118,513.77118 0 1 1 -1027.5424,0 513.77118,513.77118 0 1 1 1027.5424,0 z"
       transform="matrix(-0.70197014,-0.68884752,0.68884752,-0.70197014,2634.7078,3570.5608)" />
    <path
       sodipodi:type="arc"
       style="fill:none;stroke:none"
       id="path3893-4"
       sodipodi:cx="2207.5874"
       sodipodi:cy="1474.6952"
       sodipodi:rx="694.37885"
       sodipodi:ry="694.37885"
       d="m 2901.9662,1474.6952 a 694.37885,694.37885 0 1 1 -1388.7576,0 694.37885,694.37885 0 1 1 1388.7576,0 z"
       transform="matrix(-0.56038477,-0.71395837,0.71395837,-0.56038477,2184.2275,3652.5223)" />
    <path
       sodipodi:type="arc"
       style="fill:none;stroke:none"
       id="path3893"
       sodipodi:cx="2207.5874"
       sodipodi:cy="1474.6952"
       sodipodi:rx="694.37885"
       sodipodi:ry="694.37885"
       d="m 2901.9662,1474.6952 a 694.37885,694.37885 0 1 1 -1388.7576,0 694.37885,694.37885 0 1 1 1388.7576,0 z"
       transform="matrix(-0.56038477,-0.71395837,0.71395837,-0.56038477,2184.2275,3652.5223)" />
    <path
       sodipodi:type="arc"
       style="fill:none;stroke:none;display:inline"
       id="path3893-2-3"
       sodipodi:cx="2207.5874"
       sodipodi:cy="1474.6952"
       sodipodi:rx="694.37885"
       sodipodi:ry="694.37885"
       d="m 2901.9662,1474.6952 a 694.37885,694.37885 0 1 1 -1388.7576,0 694.37885,694.37885 0 1 1 1388.7576,0 z"
       transform="matrix(-0.53059272,0.92664577,0.92664577,0.53059272,1804.8096,-1578.1141)" />
    <path
       sodipodi:type="arc"
       style="fill:none;stroke:none;display:inline"
       id="path3893-2"
       sodipodi:cx="2207.5874"
       sodipodi:cy="1474.6952"
       sodipodi:rx="694.37885"
       sodipodi:ry="694.37885"
       d="m 2901.9662,1474.6952 a 694.37885,694.37885 0 1 1 -1388.7576,0 694.37885,694.37885 0 1 1 1388.7576,0 z"
       transform="matrix(-0.53059272,0.92664577,0.92664577,0.53059272,1804.8096,-1578.1141)" />
  </defs>
  <sodipodi:namedview
     id="base"
     pagecolor="#ffffff"
     bordercolor="#666666"
     borderopacity="1.0"
     inkscape:pageopacity="0.0"
     inkscape:pageshadow="2"
     inkscape:zoom="0.24036458"
     inkscape:cx="2358.8726"
     inkscape:cy="1120.0054"
     inkscape:document-units="px"
     inkscape:current-layer="layer6"
     showgrid="false"
     inkscape:snap-page="true"
     inkscape:window-width="1920"
     inkscape:window-height="1166"
     inkscape:window-x="0"
     inkscape:window-y="14"
     inkscape:window-maximized="0" />
  <metadata
     id="metadata3064">
    <rdf:RDF>
      <cc:Work
         rdf:about="">
        <dc:format>image/svg+xml</dc:format>
        <dc:type
           rdf:resource="http://purl.org/dc/dcmitype/StillImage" />
        <dc:title></dc:title>
      </cc:Work>
    </rdf:RDF>
  </metadata>
  <g
     inkscape:groupmode="layer"
     id="layer5"
     inkscape:label="bg"
     sodipodi:insensitive="true">
    <rect
       style="fill:#333333;fill-opacity:1;display:inline;filter:url(#filter4634)"
       id="rect3847"
       width="4000"
       height="2500"
       x="4.3066407e-06"
       y="-2500"
       transform="scale(1,-1)" />
  </g>
  <g
     inkscape:label="grafix"
     inkscape:groupmode="layer"
     id="layer1"
     transform="translate(0,1447.6378)">
    <rect
       style="fill:#1793d1;fill-opacity:1;stroke:none"
       id="rect4637-1"
       width="250"
       height="800"
       x="1875"
       y="252.3622" />
    <rect
       style="fill:#1793d1;fill-opacity:1;stroke:none"
       id="rect4637"
       width="250"
       height="800"
       x="1875"
       y="-1447.6378" />
    <path
       sodipodi:type="arc"
       style="fill:none;stroke:#333333;stroke-width:60;stroke-miterlimit:4;stroke-opacity:1;stroke-dasharray:none;display:inline"
       id="path4891"
       sodipodi:cx="1789.1387"
       sodipodi:cy="934.7605"
       sodipodi:rx="439.5817"
       sodipodi:ry="439.5817"
       d="m 2228.7204,934.7605 c 0,242.7743 -196.8075,439.5817 -439.5817,439.5817 -242.7743,0 -439.5817,-196.8074 -439.5817,-439.5817 0,-242.77427 196.8074,-439.5817 439.5817,-439.5817 242.7742,0 439.5817,196.80743 439.5817,439.5817 z"
       transform="translate(210.86134,-1132.3983)" />
    <path
       style="fill:#1793d1;fill-opacity:1;stroke:none;display:inline"
       d="m 2000,-572.63781 c -207.1048,0 -375,167.89519 -375,374.99999 0,207.104803 167.8952,375 375,375 207.1048,0 375,-167.895197 375,-375 -1e-4,-207.1048 -167.8952,-374.99999 -375,-374.99999 z m -0.028,130.99449 c 40.4869,95.0139 50.0611,124.2837 168.149,344.1435 -14.9333,-8.9663 -34.0984,-16.9977 -60.8563,-23.9501 38.9291,19.9808 58.0287,38.4428 76.3259,52.6241 11.616,21.5399 23.7756,44.164803 37.4035,69.254303 -69.1125,-39.8999 -122.8362,-64.792003 -172.9008,-74.585603 1.6647,-7.5359 2.6074,-15.6423 2.8178,-24.0884 1.1118,-44.8858 -20.3786,-83.2087 -48.0386,-85.5526 -27.6595,-2.3436 -51.0157,32.1862 -52.1272,77.0719 l -0.083,2.2377 c -0.084,10.5498 1.1418,20.6523 3.3149,29.9999 -50.6137,9.5146 -104.9121,34.47 -174.9724,74.917103 89.1392,-160.164603 133.0683,-243.513803 161.1052,-302.016603 14.6734,12.3404 34.3088,24.2325 63.0937,36.0775 -26.7744,-18.726 -43.2534,-35.293 -56.6851,-49.5304 21.9033,-46.7991 33.7827,-78.3752 53.4533,-126.6023 z"
       id="path4108-5"
       inkscape:connector-curvature="0" />
    <path
       sodipodi:type="arc"
       style="fill:none;stroke:none;display:inline"
       id="path3093"
       sodipodi:cx="2113.2178"
       sodipodi:cy="1232.0693"
       sodipodi:rx="513.77118"
       sodipodi:ry="513.77118"
       d="m 2626.989,1232.0693 c 0,283.748 -230.0232,513.7712 -513.7712,513.7712 -283.748,0 -513.7712,-230.0232 -513.7712,-513.7712 0,-283.74795 230.0232,-513.77114 513.7712,-513.77114 283.748,0 513.7712,230.02319 513.7712,513.77114 z"
       transform="matrix(-0.70197014,-0.68884752,0.68884752,-0.70197014,2634.7078,2122.923)" />
    <path
       sodipodi:type="arc"
       style="fill:none;stroke:none;display:inline"
       id="path3101"
       sodipodi:cx="2113.2178"
       sodipodi:cy="1232.0693"
       sodipodi:rx="513.77118"
       sodipodi:ry="513.77118"
       d="m 2626.989,1232.0693 c 0,283.748 -230.0232,513.7712 -513.7712,513.7712 -283.748,0 -513.7712,-230.0232 -513.7712,-513.7712 0,-283.74795 230.0232,-513.77114 513.7712,-513.77114 283.748,0 513.7712,230.02319 513.7712,513.77114 z"
       transform="matrix(-0.72494228,1.0057426,1.0057426,0.72494228,2292.8163,-3216.1702)" />
    <path
       style="fill:#e5ff80;fill-opacity:1;stroke:none;display:inline"
       d="m 2880,-572.6378 c -207.1048,0 -375,167.8952 -375,375 0,207.10479 167.8952,374.99999 375,374.99999 207.1048,0 375,-167.8952 375,-374.99999 -1e-4,-207.1048 -167.8952,-375 -375,-375 z m -0.028,130.9945 c 40.4869,95.0139 50.0611,124.2837 168.149,344.14349 -14.9333,-8.9663 -34.0984,-16.9977 -60.8563,-23.9501 38.9291,19.9808 58.0287,38.4428 76.3259,52.6241 11.616,21.5399 23.7756,44.1648 37.4035,69.2543 -69.1125,-39.8999 -122.8362,-64.792 -172.9008,-74.5856 1.6647,-7.5359 2.6074,-15.6423 2.8178,-24.0884 1.1118,-44.88579 -20.3786,-83.20869 -48.0386,-85.55259 -27.6595,-2.3436 -51.0157,32.1862 -52.1272,77.07189 l -0.083,2.2377 c -0.084,10.5498 1.1418,20.6523 3.3149,29.9999 -50.6137,9.5146 -104.9121,34.47 -174.9724,74.9171 89.1392,-160.16459 133.0683,-243.51379 161.1052,-302.01659 14.6734,12.3404 34.3088,24.2325 63.0937,36.0775 -26.7744,-18.726 -43.2534,-35.293 -56.6851,-49.5304 21.9033,-46.7991 33.7827,-78.3752 53.4533,-126.6023 z"
       id="path4108-5-9"
       inkscape:connector-curvature="0" />
    <path
       style="fill:#ffe680;fill-opacity:1;stroke:none;display:inline"
       d="m 1120,-572.6378 c -207.1048,0 -375,167.8952 -375,375 0,207.10479 167.8952,374.99999 375,374.99999 207.1048,0 375,-167.8952 375,-374.99999 -10e-5,-207.1048 -167.8952,-375 -375,-375 z m -0.028,130.9945 c 40.4869,95.0139 50.0611,124.2837 168.149,344.14349 -14.9333,-8.9663 -34.0984,-16.9977 -60.8563,-23.9501 38.9291,19.9808 58.0287,38.4428 76.3259,52.6241 11.616,21.5399 23.7756,44.1648 37.4035,69.2543 -69.1125,-39.8999 -122.8362,-64.792 -172.9008,-74.5856 1.6647,-7.5359 2.6074,-15.6423 2.8178,-24.0884 1.1118,-44.88579 -20.3786,-83.20869 -48.0386,-85.55259 -27.6595,-2.3436 -51.0157,32.1862 -52.1272,77.07189 l -0.083,2.2377 c -0.084,10.5498 1.1418,20.6523 3.3149,29.9999 -50.6137,9.5146 -104.9121,34.47 -174.9724,74.9171 89.1392,-160.16459 133.0683,-243.51379 161.1052,-302.01659 14.6734,12.3404 34.3088,24.2325 63.0937,36.0775 -26.7744,-18.726 -43.2534,-35.293 -56.6851,-49.5304 21.9033,-46.7991 33.7827,-78.3752 53.4533,-126.6023 z"
       id="path4108-5-8"
       inkscape:connector-curvature="0" />
    <path
       style="fill:#ff8080;fill-opacity:1;stroke:none;display:inline"
       d="m 240,-572.6378 c -207.10478,0 -374.99997,167.8952 -374.99997,375 0,207.1047875 167.89519,374.99999 374.99997,374.99999 207.1048,0 375,-167.8952025 375,-374.99999 -10e-5,-207.1048 -167.8952,-375 -375,-375 z m -0.028,130.9945 c 40.4869,95.0139 50.0611,124.2837 168.149,344.143488 -14.9333,-8.966298 -34.0984,-16.997698 -60.8563,-23.950098 38.9291,19.9808 58.0287,38.442798 76.3259,52.624098 11.616,21.5399 23.7756,44.1648 37.4035,69.25429951 C 391.8816,-39.471412 338.1579,-64.363512 288.0933,-74.157112 c 1.6647,-7.5359 2.6074,-15.6423 2.8178,-24.0884 1.1118,-44.885788 -20.3786,-83.208688 -48.0386,-85.552588 -27.6595,-2.3436 -51.0157,32.1862 -52.1272,77.07189 l -0.083,2.2377 c -0.084,10.549798 1.1418,20.652298 3.3149,29.999898 -50.6137,9.5146 -104.91208,34.47 -174.97238,74.91709951 C 108.14402,-159.7361 152.0731,-243.0853 180.11,-301.5881 c 14.6734,12.3404 34.3088,24.2325 63.0937,36.0775 -26.7744,-18.726 -43.2534,-35.293 -56.6851,-49.5304 21.9033,-46.7991 33.7827,-78.3752 53.4533,-126.6023 z"
       id="path4108-5-8-6"
       inkscape:connector-curvature="0" />
    <path
       style="fill:#87decd;fill-opacity:1;stroke:none;display:inline"
       d="m 3760,-572.6378 c -207.1048,0 -375,167.8952 -375,375 0,207.1047875 167.8952,374.99999 375,374.99999 207.1048,0 375,-167.8952025 375,-374.99999 -1e-4,-207.1048 -167.8952,-375 -375,-375 z m -0.028,130.9945 c 40.4869,95.0139 50.0611,124.2837 168.149,344.143488 -14.9333,-8.966298 -34.0984,-16.997698 -60.8563,-23.950098 38.9291,19.9808 58.0287,38.442798 76.3259,52.624098 11.616,21.5399 23.7756,44.1648 37.4035,69.25429951 C 3911.8816,-39.471412 3858.1579,-64.363512 3808.0933,-74.157112 c 1.6647,-7.5359 2.6074,-15.6423 2.8178,-24.0884 1.1118,-44.885788 -20.3786,-83.208688 -48.0386,-85.552588 -27.6595,-2.3436 -51.0157,32.1862 -52.1272,77.07189 l -0.083,2.2377 c -0.084,10.549798 1.1418,20.652298 3.3149,29.999898 -50.6137,9.5146 -104.9121,34.47 -174.9724,74.91709951 C 3628.144,-159.7361 3672.0731,-243.0853 3700.11,-301.5881 c 14.6734,12.3404 34.3088,24.2325 63.0937,36.0775 -26.7744,-18.726 -43.2534,-35.293 -56.6851,-49.5304 21.9033,-46.7991 33.7827,-78.3752 53.4533,-126.6023 z"
       id="path4108-5-9-7"
       inkscape:connector-curvature="0" />
    <rect
       style="fill:#ffe680;fill-opacity:1;stroke:none"
       id="rect4637-1-6"
       width="250"
       height="800"
       x="995"
       y="252.36221" />
    <rect
       style="fill:#ffe680;fill-opacity:1;stroke:none"
       id="rect4637-7"
       width="250"
       height="800"
       x="995"
       y="-1447.6378" />
    <path
       sodipodi:type="arc"
       style="fill:none;stroke:#333333;stroke-width:60;stroke-miterlimit:4;stroke-opacity:1;stroke-dasharray:none;display:inline"
       id="path4891-0"
       sodipodi:cx="1789.1387"
       sodipodi:cy="934.7605"
       sodipodi:rx="439.5817"
       sodipodi:ry="439.5817"
       d="m 2228.7204,934.7605 c 0,242.7743 -196.8075,439.5817 -439.5817,439.5817 -242.7743,0 -439.5817,-196.8074 -439.5817,-439.5817 0,-242.77427 196.8074,-439.5817 439.5817,-439.5817 242.7742,0 439.5817,196.80743 439.5817,439.5817 z"
       transform="translate(-669.13868,-1132.3983)" />
    <rect
       style="fill:#ff8080;fill-opacity:1;stroke:none"
       id="rect4637-1-6-6"
       width="250"
       height="800"
       x="115"
       y="252.36221" />
    <rect
       style="fill:#ff8080;fill-opacity:1;stroke:none"
       id="rect4637-7-5"
       width="250"
       height="800"
       x="115"
       y="-1447.6378" />
    <path
       sodipodi:type="arc"
       style="fill:none;stroke:#333333;stroke-width:60;stroke-miterlimit:4;stroke-opacity:1;stroke-dasharray:none;display:inline"
       id="path4891-0-7"
       sodipodi:cx="1789.1387"
       sodipodi:cy="934.7605"
       sodipodi:rx="439.5817"
       sodipodi:ry="439.5817"
       d="m 2228.7204,934.7605 c 0,242.7743 -196.8075,439.5817 -439.5817,439.5817 -242.7743,0 -439.5817,-196.8074 -439.5817,-439.5817 0,-242.77427 196.8074,-439.5817 439.5817,-439.5817 242.7742,0 439.5817,196.80743 439.5817,439.5817 z"
       transform="translate(-1549.1387,-1132.3983)" />
    <rect
       style="fill:#e5ff80;fill-opacity:1;stroke:none"
       id="rect4637-1-4"
       width="250"
       height="800"
       x="2755"
       y="252.36221" />
    <rect
       style="fill:#e5ff80;fill-opacity:1;stroke:none"
       id="rect4637-18"
       width="250"
       height="800"
       x="2755"
       y="-1447.6378" />
    <path
       sodipodi:type="arc"
       style="fill:none;stroke:#333333;stroke-width:60;stroke-miterlimit:4;stroke-opacity:1;stroke-dasharray:none;display:inline"
       id="path4891-4"
       sodipodi:cx="1789.1387"
       sodipodi:cy="934.7605"
       sodipodi:rx="439.5817"
       sodipodi:ry="439.5817"
       d="m 2228.7204,934.7605 c 0,242.7743 -196.8075,439.5817 -439.5817,439.5817 -242.7743,0 -439.5817,-196.8074 -439.5817,-439.5817 0,-242.77427 196.8074,-439.5817 439.5817,-439.5817 242.7742,0 439.5817,196.80743 439.5817,439.5817 z"
       transform="translate(1090.8613,-1132.3983)" />
    <rect
       style="fill:#87decd;fill-opacity:1;stroke:none"
       id="rect4637-1-4-4"
       width="250"
       height="800"
       x="3635"
       y="252.36221" />
    <rect
       style="fill:#87decd;fill-opacity:1;stroke:none"
       id="rect4637-18-9"
       width="250"
       height="800"
       x="3635"
       y="-1447.6378" />
    <path
       sodipodi:type="arc"
       style="fill:none;stroke:#333333;stroke-width:60;stroke-miterlimit:4;stroke-opacity:1;stroke-dasharray:none;display:inline"
       id="path4891-4-6"
       sodipodi:cx="1789.1387"
       sodipodi:cy="934.7605"
       sodipodi:rx="439.5817"
       sodipodi:ry="439.5817"
       d="m 2228.7204,934.7605 c 0,242.7743 -196.8075,439.5817 -439.5817,439.5817 -242.7743,0 -439.5817,-196.8074 -439.5817,-439.5817 0,-242.77427 196.8074,-439.5817 439.5817,-439.5817 242.7742,0 439.5817,196.80743 439.5817,439.5817 z"
       transform="translate(1970.8613,-1132.3983)" />
    <path
       style="fill:#1793d1;fill-opacity:0.5;stroke:none;display:inline"
       d="m 2000,-552.6378 c -207.1048,0 -375,167.8952 -375,375 0,207.1048 167.8952,375 375,375 207.1048,0 375,-167.8952 375,-375 -1e-4,-207.1048 -167.8952,-375 -375,-375 z m 0,49.9375 c 179.5312,0 325.0625,145.5313 325.0625,325.0625 0,179.5312 -145.5313,325.0625 -325.0625,325.0625 -179.5312,0 -325.0625,-145.5313 -325.0625,-325.0625 0,-179.5312 145.5313,-325.0625 325.0625,-325.0625 z"
       id="path4108-5-94"
       inkscape:connector-curvature="0" />
    <path
       style="fill:#ffe680;fill-opacity:0.5;stroke:none;display:inline"
       d="m 1120,-552.6378 c -207.1048,0 -375,167.8952 -375,375 0,207.1048 167.8952,375 375,375 207.1048,0 375,-167.8952 375,-375 -10e-5,-207.1048 -167.8952,-375 -375,-375 z m 0,49.9375 c 179.5312,0 325.0625,145.5313 325.0625,325.0625 0,179.5312 -145.5313,325.0625 -325.0625,325.0625 -179.5312,0 -325.0625,-145.5313 -325.0625,-325.0625 0,-179.5312 145.5313,-325.0625 325.0625,-325.0625 z"
       id="path4108-5-94-7"
       inkscape:connector-curvature="0" />
    <path
       style="fill:#ff8080;fill-opacity:0.5;stroke:none;display:inline"
       d="m 240,-552.6378 c -207.1048,0 -375,167.8952 -375,375 0,207.1048 167.8952,375 375,375 207.1048,0 375,-167.8952 375,-375 -10e-5,-207.1048 -167.8952,-375 -375,-375 z m 0,49.9375 c 179.5312,0 325.0625,145.5313 325.0625,325.0625 0,179.5312 -145.5313,325.0625 -325.0625,325.0625 -179.5312,0 -325.0625,-145.5313 -325.0625,-325.0625 0,-179.5312 145.5313,-325.0625 325.0625,-325.0625 z"
       id="path4108-5-94-7-6"
       inkscape:connector-curvature="0" />
    <path
       style="fill:#e5ff80;fill-opacity:0.5;stroke:none;display:inline"
       d="m 2880,-552.6378 c -207.1048,0 -375,167.8952 -375,375 0,207.1048 167.8952,375 375,375 207.1048,0 375,-167.8952 375,-375 -1e-4,-207.1048 -167.8952,-375 -375,-375 z m 0,49.9375 c 179.5312,0 325.0625,145.5313 325.0625,325.0625 0,179.5312 -145.5313,325.0625 -325.0625,325.0625 -179.5312,0 -325.0625,-145.5313 -325.0625,-325.0625 0,-179.5312 145.5313,-325.0625 325.0625,-325.0625 z"
       id="path4108-5-94-6"
       inkscape:connector-curvature="0" />
    <path
       style="fill:#87decd;fill-opacity:0.5;stroke:none;display:inline"
       d="m 3760,-552.6378 c -207.1048,0 -375,167.8952 -375,375 0,207.1048 167.8952,375 375,375 207.1048,0 375,-167.8952 375,-375 -1e-4,-207.1048 -167.8952,-375 -375,-375 z m 0,49.9375 c 179.5312,0 325.0625,145.5313 325.0625,325.0625 0,179.5312 -145.5313,325.0625 -325.0625,325.0625 -179.5312,0 -325.0625,-145.5313 -325.0625,-325.0625 0,-179.5312 145.5313,-325.0625 325.0625,-325.0625 z"
       id="path4108-5-94-6-5"
       inkscape:connector-curvature="0" />
  </g>
  <g
     inkscape:groupmode="layer"
     id="layer6"
     inkscape:label="text"
     style="display:inline" />
</svg>
